<?xml version="1.0" encoding="UTF-8"?>
<svg xmlns="http://www.w3.org/2000/svg" width="1432" height="576" viewBox="0 0 1432 576"
     style="font-family: -apple-system, BlinkMacSystemFont, 'Segoe UI', Roboto, sans-serif;">
  <defs>
    <marker id="arr" markerWidth="8" markerHeight="6" refX="7" refY="3" orient="auto">
      <path d="M0,0 L0,6 L8,3 z" fill="#545b64"/>
    </marker>
    <filter id="shadow" x="-10%" y="-10%" width="120%" height="130%">
      <feDropShadow dx="0" dy="1" stdDeviation="2" flood-opacity="0.1"/>
    </filter>
  </defs>
  <rect width="100%" height="100%" fill="#ffffff"/>
  <g class="module">
    <rect x="144" y="64" width="464" height="184" fill="#f7f8f8" stroke="#d5dbdb" rx="8"/>
    <path d="M152,64 h448 a8,8 0 0 1 8,8 v24 h-464 v-24 a8,8 0 0 1 8,-8 z" fill="#232f3e"/>
    <text x="160" y="86" font-size="13" font-weight="600" fill="#ffffff">Visitor Counter</text>
  </g>
  <g class="module">
    <rect x="144" y="328" width="1224" height="184" fill="#f7f8f8" stroke="#d5dbdb" rx="8"/>
    <path d="M152,328 h1208 a8,8 0 0 1 8,8 v24 h-1224 v-24 a8,8 0 0 1 8,-8 z" fill="#232f3e"/>
    <text x="160" y="350" font-size="13" font-weight="600" fill="#ffffff">Website Frontend</text>
  </g>
  <g class="node">
    <rect x="168" y="120" width="112" height="104" fill="#ffffff" stroke="#d5dbdb" rx="6" filter="url(#shadow)"/>
    <rect x="200" y="132" width="48" height="48" rx="6" fill="#ED7100"/>
    <text x="224" y="164" font-size="16" font-weight="600" fill="white" text-anchor="middle">λ</text>
    <text x="224" y="200" font-size="9" fill="#545b64" text-anchor="middle">Lambda URL</text>
    <text x="224" y="214" font-size="11" fill="#232f3e" text-anchor="middle">counter</text>
  </g>
  <g class="node">
    <rect x="320" y="120" width="112" height="104" fill="#ffffff" stroke="#d5dbdb" rx="6" filter="url(#shadow)"/>
    <rect x="352" y="132" width="48" height="48" rx="6" fill="#ED7100"/>
    <text x="376" y="164" font-size="16" font-weight="600" fill="white" text-anchor="middle">λ</text>
    <text x="376" y="200" font-size="9" fill="#545b64" text-anchor="middle">Lambda</text>
    <text x="376" y="214" font-size="11" fill="#232f3e" text-anchor="middle">counter</text>
  </g>
  <g class="node">
    <rect x="472" y="120" width="112" height="104" fill="#ffffff" stroke="#d5dbdb" rx="6" filter="url(#shadow)"/>
    <rect x="504" y="132" width="48" height="48" rx="6" fill="#C925D1"/>
    <text x="528" y="164" font-size="16" font-weight="600" fill="white" text-anchor="middle">DDB</text>
    <text x="528" y="200" font-size="9" fill="#545b64" text-anchor="middle">DynamoDB</text>
    <text x="528" y="214" font-size="11" fill="#232f3e" text-anchor="middle">counter</text>
  </g>
  <g class="node">
    <rect x="168" y="384" width="112" height="104" fill="#ffffff" stroke="#d5dbdb" rx="6" filter="url(#shadow)"/>
    <rect x="200" y="396" width="48" height="48" rx="6" fill="#8C4FFF"/>
    <text x="224" y="428" font-size="16" font-weight="600" fill="white" text-anchor="middle">DNS</text>
    <text x="224" y="464" font-size="9" fill="#545b64" text-anchor="middle">DNS Record</text>
    <text x="224" y="478" font-size="11" fill="#232f3e" text-anchor="middle">apex</text>
  </g>
  <g class="node">
    <rect x="320" y="384" width="112" height="104" fill="#ffffff" stroke="#d5dbdb" rx="6" filter="url(#shadow)"/>
    <rect x="352" y="396" width="48" height="48" rx="6" fill="#8C4FFF"/>
    <text x="376" y="428" font-size="16" font-weight="600" fill="white" text-anchor="middle">DNS</text>
    <text x="376" y="464" font-size="9" fill="#545b64" text-anchor="middle">DNS Record</text>
    <text x="376" y="478" font-size="11" fill="#232f3e" text-anchor="middle">cert_valida…</text>
  </g>
  <g class="node">
    <rect x="472" y="384" width="112" height="104" fill="#ffffff" stroke="#d5dbdb" rx="6" filter="url(#shadow)"/>
    <rect x="504" y="396" width="48" height="48" rx="6" fill="#8C4FFF"/>
    <text x="528" y="428" font-size="16" font-weight="600" fill="white" text-anchor="middle">R53</text>
    <text x="528" y="464" font-size="9" fill="#545b64" text-anchor="middle">Route 53</text>
    <text x="528" y="478" font-size="11" fill="#232f3e" text-anchor="middle">main</text>
  </g>
  <g class="node">
    <rect x="624" y="384" width="112" height="104" fill="#ffffff" stroke="#d5dbdb" rx="6" filter="url(#shadow)"/>
    <rect x="656" y="396" width="48" height="48" rx="6" fill="#8C4FFF"/>
    <text x="680" y="428" font-size="16" font-weight="600" fill="white" text-anchor="middle">DNS</text>
    <text x="680" y="464" font-size="9" fill="#545b64" text-anchor="middle">DNS Record</text>
    <text x="680" y="478" font-size="11" fill="#232f3e" text-anchor="middle">www</text>
  </g>
  <g class="node">
    <rect x="776" y="384" width="112" height="104" fill="#ffffff" stroke="#d5dbdb" rx="6" filter="url(#shadow)"/>
    <rect x="808" y="396" width="48" height="48" rx="6" fill="#DD344C"/>
    <text x="832" y="428" font-size="16" font-weight="600" fill="white" text-anchor="middle">WAF</text>
    <text x="832" y="464" font-size="9" fill="#545b64" text-anchor="middle">WAF</text>
    <text x="832" y="478" font-size="11" fill="#232f3e" text-anchor="middle">cloudfront_…</text>
  </g>
  <g class="node">
    <rect x="928" y="384" width="112" height="104" fill="#ffffff" stroke="#d5dbdb" rx="6" filter="url(#shadow)"/>
    <rect x="960" y="396" width="48" height="48" rx="6" fill="#8C4FFF"/>
    <text x="984" y="428" font-size="16" font-weight="600" fill="white" text-anchor="middle">CF</text>
    <text x="984" y="464" font-size="9" fill="#545b64" text-anchor="middle">CloudFront</text>
    <text x="984" y="478" font-size="11" fill="#232f3e" text-anchor="middle">website</text>
  </g>
  <g class="node">
    <rect x="1080" y="384" width="112" height="104" fill="#ffffff" stroke="#d5dbdb" rx="6" filter="url(#shadow)"/>
    <rect x="1112" y="396" width="48" height="48" rx="6" fill="#7AA116"/>
    <text x="1136" y="428" font-size="16" font-weight="600" fill="white" text-anchor="middle">S3</text>
    <text x="1136" y="464" font-size="9" fill="#545b64" text-anchor="middle">S3</text>
    <text x="1136" y="478" font-size="11" fill="#232f3e" text-anchor="middle">website</text>
  </g>
  <g class="node">
    <rect x="1232" y="384" width="112" height="104" fill="#ffffff" stroke="#d5dbdb" rx="6" filter="url(#shadow)"/>
    <rect x="1264" y="396" width="48" height="48" rx="6" fill="#DD344C"/>
    <text x="1288" y="428" font-size="16" font-weight="600" fill="white" text-anchor="middle">ACM</text>
    <text x="1288" y="464" font-size="9" fill="#545b64" text-anchor="middle">ACM</text>
    <text x="1288" y="478" font-size="11" fill="#232f3e" text-anchor="middle">website</text>
  </g>
  <line x1="436" y1="172" x2="468" y2="172" stroke="#545b64" stroke-width="1.5" marker-end="url(#arr)"/>
  <line x1="284" y1="172" x2="316" y2="172" stroke="#545b64" stroke-width="1.5" marker-end="url(#arr)"/>
  <line x1="1044" y1="436" x2="1228" y2="436" stroke="#545b64" stroke-width="1.5" marker-end="url(#arr)"/>
  <line x1="1044" y1="436" x2="1076" y2="436" stroke="#545b64" stroke-width="1.5" marker-end="url(#arr)"/>
  <line x1="1044" y1="436" x2="772" y2="436" stroke="#545b64" stroke-width="1.5" marker-end="url(#arr)"/>
  <line x1="284" y1="436" x2="924" y2="436" stroke="#545b64" stroke-width="1.5" marker-end="url(#arr)"/>
  <line x1="284" y1="436" x2="468" y2="436" stroke="#545b64" stroke-width="1.5" marker-end="url(#arr)"/>
  <line x1="436" y1="436" x2="1228" y2="436" stroke="#545b64" stroke-width="1.5" marker-end="url(#arr)"/>
  <line x1="436" y1="436" x2="468" y2="436" stroke="#545b64" stroke-width="1.5" marker-end="url(#arr)"/>
  <line x1="740" y1="436" x2="924" y2="436" stroke="#545b64" stroke-width="1.5" marker-end="url(#arr)"/>
  <line x1="740" y1="436" x2="468" y2="436" stroke="#545b64" stroke-width="1.5" marker-end="url(#arr)"/>
  <g class="user" transform="translate(64,290)">
    <circle cx="24" cy="12" r="9" fill="none" stroke="#232f3e" stroke-width="2"/>
    <path d="M8,38 Q8,24 24,24 Q40,24 40,38" fill="none" stroke="#232f3e" stroke-width="2"/>
    <text x="24" y="54" font-size="11" fill="#232f3e" text-anchor="middle">Users</text>
  </g>
  <path d="M112,290 L132,290 Q132,172,164,172" fill="none" stroke="#545b64" stroke-width="1.5" marker-end="url(#arr)"/>
  <path d="M112,298 L132,298 Q132,436,164,436" fill="none" stroke="#545b64" stroke-width="1.5" marker-end="url(#arr)"/>
  <path d="M112,306 L132,306 Q132,436,316,436" fill="none" stroke="#545b64" stroke-width="1.5" marker-end="url(#arr)"/>
  <path d="M112,314 L132,314 Q132,436,468,436" fill="none" stroke="#545b64" stroke-width="1.5" marker-end="url(#arr)"/>
  <path d="M112,322 L132,322 Q132,436,620,436" fill="none" stroke="#545b64" stroke-width="1.5" marker-end="url(#arr)"/>
  <path d="M112,330 L132,330 Q132,436,924,436" fill="none" stroke="#545b64" stroke-width="1.5" marker-end="url(#arr)"/>
</svg>