<?xml version="1.0" encoding="UTF-8"?>
<svg xmlns="http://www.w3.org/2000/svg" width="1072" height="592" viewBox="0 0 1072 592"
     style="font-family: -apple-system, BlinkMacSystemFont, 'Segoe UI', Roboto, sans-serif;">
  <defs>
    <marker id="arrow" markerWidth="8" markerHeight="6" refX="7" refY="3" orient="auto">
      <path d="M0,0 L0,6 L8,3 z" fill="#545b64"/>
    </marker>
    <filter id="shadow" x="-20%" y="-20%" width="140%" height="140%">
      <feDropShadow dx="0" dy="2" stdDeviation="3" flood-opacity="0.1"/>
    </filter>
  </defs>
  <rect width="100%" height="100%" fill="#ffffff"/>
  <g class="module">
    <rect x="144" y="64" width="512" height="184" fill="#f8f9fa" stroke="#e9ecef" rx="8"/>
    <rect x="144" y="64" width="512" height="32" fill="#232f3e" rx="8"/>
    <rect x="144" y="88" width="512" height="8" fill="#232f3e"/>
    <text x="160" y="85" font-size="13" font-weight="600" fill="#ffffff">Visitor Counter</text>
  </g>
  <g class="module">
    <rect x="144" y="344" width="864" height="184" fill="#f8f9fa" stroke="#e9ecef" rx="8"/>
    <rect x="144" y="344" width="864" height="32" fill="#232f3e" rx="8"/>
    <rect x="144" y="368" width="864" height="8" fill="#232f3e"/>
    <text x="160" y="365" font-size="13" font-weight="600" fill="#ffffff">Website Frontend</text>
  </g>
  <g class="node">
    <rect x="168" y="120" width="112" height="104" fill="#ffffff" stroke="#d5dbdb" rx="6" filter="url(#shadow)"/>
    <g transform="translate(200,132) scale(0.75)">

    <title>Icon-Architecture/48/Arch_AWS-Lambda_48</title>
    <g id="Icon-Architecture/48/Arch_AWS-Lambda_48" stroke="none" stroke-width="1" fill="none" fill-rule="evenodd">
        <g id="Icon-Architecture-BG/48/Compute" fill="#ED7100">
            <rect id="Rectangle" x="0" y="0" width="64" height="64"></rect>
        </g>
        <path d="M22.6794094,52 L13.5740701,52 L23.8376189,30.41 L28.3997494,39.861 L22.6794094,52 Z M24.7269406,27.667 C24.5606285,27.321 24.2120702,27.103 23.8306478,27.103 L23.8276601,27.103 C23.4452418,27.104 23.0966835,27.325 22.9323632,27.672 L11.0973143,52.569 C10.9499239,52.879 10.9708374,53.243 11.1540795,53.534 C11.3353298,53.824 11.6540117,54 11.9955989,54 L23.309802,54 C23.695208,54 24.0447622,53.777 24.2100784,53.428 L30.4044577,40.284 C30.5329264,40.01 30.5319305,39.692 30.3994783,39.42 L24.7269406,27.667 Z M51.0082382,52 L41.985557,52 L26.9547262,19.578 C26.7914017,19.226 26.4388599,19 26.0524581,19 L20.1279625,19 L20.1349337,12 L31.8146251,12 L46.7747483,44.42 C46.9380728,44.774 47.2906147,45 47.6790082,45 L51.0082382,45 L51.0082382,52 Z M52.0041191,43 L48.3143803,43 L33.354257,10.58 C33.1909326,10.226 32.8383907,10 32.450993,10 L19.1400486,10 C18.5913182,10 18.1451636,10.447 18.1441677,10.999 L18.1362006,19.999 C18.1362006,20.265 18.2407681,20.519 18.4269979,20.707 C18.6142235,20.895 18.8671772,21 19.1310857,21 L25.4170861,21 L40.4479168,53.422 C40.6112413,53.774 40.9627873,54 41.350185,54 L52.0041191,54 C52.5548412,54 53,53.552 53,53 L53,44 C53,43.448 52.5548412,43 52.0041191,43 L52.0041191,43 Z" id="AWS-Lambda_Icon_48_Squid" fill="#FFFFFF"></path>
    </g>

    </g>
    <text x="224" y="200" font-size="9" fill="#545b64" text-anchor="middle">Lambda URL</text>
    <text x="224" y="214" font-size="11" fill="#232f3e" text-anchor="middle">counter</text>
  </g>
  <g class="node">
    <rect x="344" y="120" width="112" height="104" fill="#ffffff" stroke="#d5dbdb" rx="6" filter="url(#shadow)"/>
    <g transform="translate(376,132) scale(0.75)">

    <title>Icon-Architecture/48/Arch_AWS-Lambda_48</title>
    <g id="Icon-Architecture/48/Arch_AWS-Lambda_48" stroke="none" stroke-width="1" fill="none" fill-rule="evenodd">
        <g id="Icon-Architecture-BG/48/Compute" fill="#ED7100">
            <rect id="Rectangle" x="0" y="0" width="64" height="64"></rect>
        </g>
        <path d="M22.6794094,52 L13.5740701,52 L23.8376189,30.41 L28.3997494,39.861 L22.6794094,52 Z M24.7269406,27.667 C24.5606285,27.321 24.2120702,27.103 23.8306478,27.103 L23.8276601,27.103 C23.4452418,27.104 23.0966835,27.325 22.9323632,27.672 L11.0973143,52.569 C10.9499239,52.879 10.9708374,53.243 11.1540795,53.534 C11.3353298,53.824 11.6540117,54 11.9955989,54 L23.309802,54 C23.695208,54 24.0447622,53.777 24.2100784,53.428 L30.4044577,40.284 C30.5329264,40.01 30.5319305,39.692 30.3994783,39.42 L24.7269406,27.667 Z M51.0082382,52 L41.985557,52 L26.9547262,19.578 C26.7914017,19.226 26.4388599,19 26.0524581,19 L20.1279625,19 L20.1349337,12 L31.8146251,12 L46.7747483,44.42 C46.9380728,44.774 47.2906147,45 47.6790082,45 L51.0082382,45 L51.0082382,52 Z M52.0041191,43 L48.3143803,43 L33.354257,10.58 C33.1909326,10.226 32.8383907,10 32.450993,10 L19.1400486,10 C18.5913182,10 18.1451636,10.447 18.1441677,10.999 L18.1362006,19.999 C18.1362006,20.265 18.2407681,20.519 18.4269979,20.707 C18.6142235,20.895 18.8671772,21 19.1310857,21 L25.4170861,21 L40.4479168,53.422 C40.6112413,53.774 40.9627873,54 41.350185,54 L52.0041191,54 C52.5548412,54 53,53.552 53,53 L53,44 C53,43.448 52.5548412,43 52.0041191,43 L52.0041191,43 Z" id="AWS-Lambda_Icon_48_Squid" fill="#FFFFFF"></path>
    </g>

    </g>
    <text x="400" y="200" font-size="9" fill="#545b64" text-anchor="middle">Lambda</text>
    <text x="400" y="214" font-size="11" fill="#232f3e" text-anchor="middle">counter</text>
  </g>
  <g class="node">
    <rect x="520" y="120" width="112" height="104" fill="#ffffff" stroke="#d5dbdb" rx="6" filter="url(#shadow)"/>
    <g transform="translate(552,132) scale(0.75)">

    <title>Icon-Architecture/48/Arch_Amazon-DynamoDB_48</title>
    <g id="Icon-Architecture/48/Arch_Amazon-DynamoDB_48" stroke="none" stroke-width="1" fill="none" fill-rule="evenodd">
        <g id="Icon-Architecture-BG/48/Database" fill="#C925D1">
            <rect id="Rectangle" x="0" y="0" width="64" height="64"></rect>
        </g>
        <path d="M46.5858287,25.2492763 L43.0008475,25.2492763 C42.6728493,25.2492763 42.3658509,25.086523 42.1788519,24.8145936 C41.9918528,24.5416533 41.9488531,24.1939071 42.0648525,23.8835638 L44.5578394,17.162156 L35.6448862,17.162156 L31.5539077,26.2601663 L36.0008843,26.2601663 C36.3218827,26.2601663 36.6238811,26.4158434 36.8128801,26.6806966 C36.9998791,26.943528 37.0518788,27.2821762 36.9488794,27.5904976 L33.2888986,38.6910812 L46.5858287,25.2492763 Z M49.7068123,24.9530855 L31.7079069,43.1491063 C31.5159079,43.3442081 31.2589093,43.4452971 31.0009106,43.4452971 C30.8189116,43.4452971 30.6379125,43.3957635 30.4759134,43.2946744 C30.0809155,43.0480173 29.9049164,42.5597574 30.0529156,42.1149658 L34.6128916,28.2819464 L30.0009159,28.2819464 C29.6609177,28.2819464 29.3449193,28.1070624 29.1599203,27.8189588 C28.9769213,27.5288333 28.9499214,27.1659238 29.0909207,26.8525479 L34.0908944,15.7327574 C34.2528935,15.3718697 34.6078917,15.1403759 35.0008896,15.1403759 L46.0008318,15.1403759 C46.32883,15.1403759 46.6358284,15.3031292 46.8228274,15.5750586 C47.0098265,15.8479989 47.0528262,16.1957451 46.9378268,16.5060883 L44.44384,23.2274962 L48.999816,23.2274962 C49.4038139,23.2274962 49.769812,23.4741534 49.9238111,23.8512154 C50.0788103,24.2292882 49.9928108,24.663971 49.7068123,24.9530855 L49.7068123,24.9530855 Z M41.0008581,44.2196388 C38.2908723,46.1059597 33.3138985,47.1016863 28.5329236,47.1016863 C23.7169489,47.1016863 18.6959753,46.0928181 15.9999895,44.1781923 L16.0009895,47.9943023 C16.0009895,49.6582273 20.7689644,51.9782199 28.5329236,51.9782199 C36.0278842,51.9782199 41.0008581,49.2761108 41.0008581,47.4888572 L41.0008581,44.2196388 Z M43.0648472,40.9504204 C43.0648472,41.1374351 43.0328474,41.3173735 43.0008475,41.4963011 L43.0008475,47.4888572 C43.0008475,51.0795387 36.5108817,54 28.5329236,54 C21.6299599,54 14.6619965,52.1106465 14.0599997,48.4997473 L14.001,48.4997473 L14,43.4452971 L14,30.3037265 L14,16.1512659 L14.001,16.1512659 C14.001,12.1552176 21.4879606,10 28.5329236,10 C32.4739029,10 36.262883,10.6398934 38.9298689,11.755916 L38.163873,13.6240408 C35.7318858,12.6050636 32.2209042,12.0217801 28.5329236,12.0217801 C20.7689644,12.0217801 16.0009895,14.4266875 16.0009895,16.1512659 C16.0009895,17.8758443 20.7689644,20.2807517 28.5329236,20.2807517 C28.7279226,20.2807517 28.9319215,20.2817626 29.1289205,20.2736755 L29.2069201,22.2934338 C28.9819212,22.3025318 28.7579224,22.3025318 28.5329236,22.3025318 C23.7159489,22.3025318 18.6959753,21.2936636 15.9999895,19.3790378 L15.9999895,23.7369848 L16.0009895,23.7369848 L16.0009895,23.7541699 C16.0059895,24.2838763 16.4899869,24.8974866 17.3649823,25.4736939 C19.3469719,26.7615678 22.9149531,27.642053 26.9039322,27.8250241 L26.8129326,29.8447824 C22.6869543,29.6547351 19.0629734,28.7762717 16.7269857,27.4287552 C16.4169873,27.7269678 16.0009895,28.4851353 16.0009895,28.8955567 C16.0009895,30.6201351 20.7689644,33.0250425 28.5329236,33.0250425 C29.2709197,33.0250425 29.9979159,32.9997703 30.6949122,32.9502366 L30.8359115,34.9669623 C30.0919154,35.0205394 29.3169195,35.0468226 28.5329236,35.0468226 C23.7159489,35.0468226 18.6959753,34.0379543 15.9999895,32.1233286 L15.9999895,35.7928594 L16.0009895,35.7928594 C16.0059895,36.339751 16.4899869,36.9533612 17.3649823,37.5295685 C19.6329704,39.0044571 23.9139479,39.9233562 28.5329236,39.9233562 L28.8629219,39.9233562 L28.8629219,41.9451362 L28.5329236,41.9451362 C23.7549487,41.9451362 18.6729754,40.9372789 16.0009895,39.4017369 C15.6789912,39.6999495 16.0009895,40.4126269 16.0009895,40.9504204 C16.0009895,42.6749989 20.7689644,45.0799063 28.5329236,45.0799063 C36.2978828,45.0799063 41.0648577,42.6749989 41.0648577,40.9504204 C41.0648577,40.3408537 40.4658609,39.7757662 39.9728635,39.4118458 C39.5638656,39.658503 39.113868,39.8950512 38.6008707,40.1113817 L37.8328747,38.2442678 C38.3638719,38.0208611 38.8228695,37.7812802 39.1968675,37.5326012 C40.2978617,36.798695 41.0008581,35.7544456 41.0008581,35.3581767 L43.0008475,35.3581767 C43.0008475,36.2983045 42.3798508,37.3051509 41.583855,38.1330699 C42.7758487,39.1732757 43.0648472,40.2114598 43.0648472,40.9504204 L43.0648472,40.9504204 Z M17.1419835,48.3885494 C17.9329793,48.796949 18.8579745,49.1608694 19.893969,49.4691908 L20.457966,47.5292928 C19.5419709,47.2573634 18.7319751,46.9399439 18.0519787,46.5881542 L17.1419835,48.3885494 Z M19.893969,37.3385103 L20.457966,35.3996232 C19.5419709,35.1266829 18.7319751,34.8102743 18.0519787,34.4584846 L17.1419835,36.2578689 C17.9329793,36.6672793 18.8579745,37.0301889 19.893969,37.3385103 L19.893969,37.3385103 Z M17.1419835,24.1281992 L18.0519787,22.3278041 C18.7319751,22.6795938 19.5419709,22.9960024 20.457966,23.2689427 L19.893969,25.2088407 C18.8579745,24.9005192 17.9329793,24.5365988 17.1419835,24.1281992 L17.1419835,24.1281992 Z" id="Amazon-DynamoDB_Icon_48_Squid" fill="#FFFFFF"></path>
    </g>

    </g>
    <text x="576" y="200" font-size="9" fill="#545b64" text-anchor="middle">DynamoDB</text>
    <text x="576" y="214" font-size="11" fill="#232f3e" text-anchor="middle">counter</text>
  </g>
  <g class="node">
    <rect x="168" y="400" width="112" height="104" fill="#ffffff" stroke="#d5dbdb" rx="6" filter="url(#shadow)"/>
    <g transform="translate(200,412) scale(0.75)">

    <title>Icon-Architecture/48/Arch_Amazon-Route-53_48</title>
    <g id="Icon-Architecture/48/Arch_Amazon-Route-53_48" stroke="none" stroke-width="1" fill="none" fill-rule="evenodd">
        <g id="Icon-Architecture-BG/48/Networking-Content-Delivery" fill="#8C4FFF">
            <rect id="Rectangle" x="0" y="0" width="64" height="64"></rect>
        </g>
        <path d="M38.761,32.5265073 C39.336,33.0577669 39.623,33.7701149 39.623,34.6635515 C39.623,35.6370272 39.274,36.4134066 38.574,36.9936901 C37.875,37.5749741 36.935,37.8651159 35.754,37.8651159 C34.822,37.8651159 33.899,37.6660186 32.986,37.269825 L32.986,36.0782428 C34.067,36.4354173 34.99,36.6135043 35.754,36.6135043 C36.508,36.6135043 37.088,36.4454222 37.495,36.1082574 C37.903,35.7710927 38.106,35.2888571 38.106,34.6635515 C38.106,33.4629649 37.347,32.861671 35.828,32.861671 C35.352,32.861671 34.881,32.8866833 34.414,32.9357072 L34.414,31.9532271 L37.54,28.5435611 L33.134,28.5435611 L33.134,27.3219641 L39.193,27.3219641 L39.193,28.4985391 L36.126,31.7451255 C36.176,31.7351206 36.225,31.7301181 36.275,31.7301181 L36.424,31.7301181 C37.407,31.7301181 38.185,31.9962482 38.761,32.5265073 M30.114,32.2663802 C30.718,32.8326569 31.021,33.6110372 31.021,34.6035222 C31.021,35.5769979 30.668,36.3633821 29.964,36.9646759 C29.259,37.5649692 28.331,37.8651159 27.181,37.8651159 C26.169,37.8651159 25.221,37.6660186 24.338,37.269825 L24.338,36.0782428 C25.44,36.4354173 26.382,36.6135043 27.166,36.6135043 C27.92,36.6135043 28.498,36.4434212 28.9,36.101254 C29.302,35.7580863 29.502,35.2648453 29.502,34.6185295 C29.502,33.9141853 29.315,33.4029355 28.937,33.0847801 C28.56,32.7676251 27.945,32.6085474 27.091,32.6085474 C26.476,32.6085474 25.707,32.6585718 24.784,32.7576202 L24.784,31.7751401 L25.068,27.3219641 L30.5,27.3219641 L30.5,28.5435611 L26.318,28.5435611 L26.123,31.5670384 C26.669,31.4669896 27.16,31.4169651 27.597,31.4169651 C28.669,31.4169651 29.508,31.7001035 30.114,32.2663802 M41.261,42.9636072 C37.516,43.6359357 34.233,45.1456735 32,46.3952841 C29.768,45.1456735 26.485,43.6359357 22.74,42.9636072 C21.708,42.7785168 16.566,41.7079937 16.566,38.8245847 C16.566,37.4629194 17.063,36.5424696 18.017,34.8996669 C19.133,32.9737258 20.663,30.3364371 20.663,26.6736474 C20.663,24.1103949 20.004,21.6511932 18.703,19.3530703 C18.792,19.244017 18.882,19.1329627 18.972,19.0229089 C20.927,19.9723729 22.959,20.4526075 25.025,20.4526075 C27.571,20.4526075 29.914,19.7962868 32,18.5016542 C34.086,19.7962868 36.43,20.4526075 38.976,20.4526075 C41.041,20.4526075 43.073,19.9723729 45.029,19.0229089 C45.118,19.1329627 45.208,19.244017 45.297,19.3530703 C43.996,21.6511932 43.337,24.1103949 43.337,26.6736474 C43.337,30.3364371 44.867,32.9737258 45.984,34.8996669 C46.938,36.5424696 47.435,37.4629194 47.435,38.8245847 C47.435,41.7079937 42.292,42.7785168 41.261,42.9636072 M45.337,26.6736474 C45.337,24.2594677 46.019,21.9443364 47.362,19.7922849 C47.589,19.4291074 47.559,18.9608786 47.288,18.6297168 C46.893,18.1454802 46.479,17.6362313 46.07,17.129984 C45.766,16.7527997 45.234,16.6497493 44.809,16.8838637 C42.926,17.9243721 40.963,18.4516298 38.976,18.4516298 C36.576,18.4516298 34.482,17.8083154 32.57,16.4826677 C32.228,16.2445513 31.773,16.2445513 31.431,16.4826677 C29.519,17.8083154 27.424,18.4516298 25.025,18.4516298 C23.037,18.4516298 21.074,17.9243721 19.192,16.8838637 C18.766,16.6497493 18.236,16.7527997 17.931,17.129984 C17.522,17.6362313 17.108,18.1454802 16.712,18.6297168 C16.442,18.9608786 16.411,19.4291074 16.639,19.7922849 C17.982,21.9443364 18.663,24.2594677 18.663,26.6736474 C18.663,29.7981741 17.401,31.9742374 16.286,33.8951761 C15.22,35.7340746 14.566,36.9556715 14.566,38.8245847 C14.566,43.1877167 20.551,44.6034085 22.386,44.9325693 C26.136,45.6068988 29.41,47.1976761 31.497,48.4122696 C31.653,48.5023136 31.826,48.5483361 32,48.5483361 C32.174,48.5483361 32.348,48.5023136 32.503,48.4122696 C34.59,47.1976761 37.865,45.6068988 41.615,44.9325693 C43.449,44.6034085 49.435,43.1877167 49.435,38.8245847 C49.435,36.9556715 48.781,35.7340746 47.714,33.8951761 C46.6,31.9742374 45.337,29.7981741 45.337,26.6736474 M42.068,47.4588037 C37.402,48.2972134 33.468,50.7554146 32,51.7679093 C30.532,50.7554146 26.599,48.2972134 21.933,47.4588037 C19.603,47.0395989 12,45.1786896 12,38.8245847 C12,36.1702878 13.004,34.4384415 14.068,32.6055459 C15.066,30.8857055 16.098,29.1068363 16.098,26.6736474 C16.098,23.0068556 14.071,20.3715679 12.941,19.1869891 C14.095,17.7823027 16.636,14.6807872 18.029,12.8969155 C20.151,14.831861 22.6,15.8853758 25.025,15.8853758 C27.726,15.8853758 29.967,14.8198552 32,12.5487454 C34.033,14.8198552 36.275,15.8853758 38.976,15.8853758 C41.401,15.8853758 43.85,14.831861 45.972,12.8969155 C47.365,14.6807872 49.906,17.7823027 51.06,19.1869891 C49.93,20.3715679 47.903,23.0068556 47.903,26.6736474 C47.903,29.1068363 48.935,30.8857055 49.933,32.6055459 C50.996,34.4384415 52,36.1702878 52,38.8245847 C52,45.1786896 44.398,47.0395989 42.068,47.4588037 M51.662,31.6010551 C50.718,29.9742601 49.903,28.5675728 49.903,26.6736474 C49.903,22.6716918 53.024,20.0714213 53.053,20.0474095 C53.26,19.8793274 53.392,19.6362086 53.419,19.3700786 C53.446,19.1039485 53.365,18.838819 53.196,18.6327183 C53.144,18.5706879 48.049,12.3936696 46.885,10.7978899 C46.709,10.5567721 46.436,10.4066987 46.138,10.3886899 C45.845,10.3696806 45.55,10.4867378 45.347,10.7038439 C43.43,12.7548461 41.167,13.8843981 38.976,13.8843981 C36.56,13.8843981 34.654,12.8008686 32.794,10.3706811 C32.415,9.87643962 31.585,9.87643962 31.206,10.3706811 C29.347,12.8008686 27.441,13.8843981 25.025,13.8843981 C22.833,13.8843981 20.571,12.7548461 18.654,10.7038439 C18.45,10.4857373 18.154,10.3646782 17.863,10.3886899 C17.565,10.4066987 17.291,10.5567721 17.115,10.7978899 C15.951,12.3936696 10.857,18.5706879 10.805,18.6327183 C10.635,18.838819 10.555,19.1039485 10.581,19.3700786 C10.609,19.6362086 10.74,19.8793274 10.948,20.0474095 C10.98,20.0734222 14.098,22.6416772 14.098,26.6736474 C14.098,28.5675728 13.282,29.9742601 12.338,31.6010551 C11.242,33.4899781 10,35.6310243 10,38.8245847 C10,44.1611924 14.328,48.1251293 21.579,49.4287663 C26.895,50.3832327 31.347,53.7598827 31.392,53.7938993 C31.572,53.9319668 31.785,54 32,54 C32.215,54 32.43,53.9309663 32.61,53.7928988 C32.654,53.7588822 37.088,50.3872347 42.421,49.4287663 C49.672,48.1251293 54,44.1611924 54,38.8245847 C54,35.6310243 52.758,33.4899781 51.662,31.6010551" id="Amazon-Route-53-Icon_48_Squid" fill="#FFFFFF"></path>
    </g>

    </g>
    <text x="224" y="480" font-size="9" fill="#545b64" text-anchor="middle">Route 53</text>
    <text x="224" y="494" font-size="11" fill="#232f3e" text-anchor="middle">main</text>
  </g>
  <g class="node">
    <rect x="344" y="400" width="112" height="104" fill="#ffffff" stroke="#d5dbdb" rx="6" filter="url(#shadow)"/>
    <g transform="translate(376,412) scale(0.75)">

    <title>Icon-Architecture/48/Arch_AWS-WAF_48</title>
    <g id="Icon-Architecture/48/Arch_AWS-WAF_48" stroke="none" stroke-width="1" fill="none" fill-rule="evenodd">
        <g id="Icon-Architecture-BG/48/Security-Identity-Compliance" fill="#DD344C">
            <rect id="Rectangle" x="0" y="0" width="64" height="64"></rect>
        </g>
        <g id="Icon-Service/48/AWS-WAF_48" transform="translate(9.999700, 10.000000)" fill="#FFFFFF">
            <path d="M16.929,30.397 C17.816,31.015 18.833,31.581 19.969,32.089 C19.492,29.713 19.175,25.602 21.312,21.671 C22.905,18.743 23.168,15.417 22,12.99 C21.548,12.05 20.9,11.28 20.078,10.698 C20.84,12.457 21.268,14.997 20.116,18.27 C19.984,18.644 19.645,18.904 19.249,18.935 C18.866,18.967 18.48,18.76 18.291,18.412 C17.96,17.796 17.049,16.408 16.008,15.579 C16.416,17.455 16.675,20.262 15.335,22.367 C15.263,22.48 15.197,22.59 15.134,22.701 C13.664,25.29 14.452,28.671 16.929,30.397 L16.929,30.397 Z M24.471,14.155 C25.036,16.804 24.563,19.88 23.07,22.626 C20.905,26.607 21.707,30.945 22.161,32.651 C24.117,32.322 29.063,31.094 30.119,27.002 C31.133,23.076 30.52,20.803 29.81,19.578 C29.101,22.122 27.802,23.193 27.735,23.247 C27.411,23.506 26.963,23.539 26.606,23.333 C26.248,23.125 26.056,22.718 26.121,22.309 C26.727,18.541 25.761,15.919 24.471,14.155 L24.471,14.155 Z M13.65,21.29 C15.259,18.763 13.576,14.325 13.559,14.28 C13.441,13.973 13.481,13.626 13.667,13.354 C13.854,13.082 14.161,12.919 14.491,12.919 C16.242,12.919 17.739,14.274 18.741,15.512 C19.27,11.523 16.864,9.428 16.744,9.328 C16.4,9.036 16.291,8.546 16.484,8.137 C16.676,7.728 17.114,7.491 17.561,7.576 C19.035,7.837 20.334,8.398 21.411,9.209 C22.366,9.636 27.137,12.048 28.125,17.909 C28.153,17.733 28.176,17.549 28.197,17.359 C28.231,17.026 28.43,16.732 28.727,16.577 C29.025,16.421 29.379,16.425 29.671,16.585 C29.858,16.688 34.204,19.18 32.055,27.502 C30.38,33.99 21.875,34.729 21.514,34.757 L21.513,34.747 C21.491,34.749 21.472,34.76 21.45,34.76 C21.338,34.76 21.224,34.741 21.115,34.701 C19.061,33.967 17.268,33.071 15.785,32.038 C12.471,29.728 11.421,25.191 13.395,21.711 C13.476,21.57 13.56,21.43 13.65,21.29 L13.65,21.29 Z M5.49,33.95 L7.111,32.777 C5.03,29.902 3.86,26.538 3.676,23 L6,23 L6,21 L3.679,21 C3.871,17.483 5.04,14.14 7.111,11.281 L5.49,10.108 C3.172,13.311 1.873,17.059 1.679,21 L0,21 L0,23 L1.676,23 C1.862,26.962 3.16,30.731 5.49,33.95 L5.49,33.95 Z M32.747,36.918 C29.88,38.993 26.528,40.162 23,40.351 L23,38 L21,38 L21,40.351 C17.472,40.163 14.118,38.994 11.25,36.918 L10.078,38.539 C13.289,40.862 17.049,42.161 21,42.351 L21,44 L23,44 L23,42.351 C26.951,42.16 30.709,40.862 33.919,38.539 L32.747,36.918 Z M11.25,7.14 C14.118,5.064 17.472,3.896 21,3.708 L21,6 L23,6 L23,3.708 C26.528,3.896 29.88,5.065 32.747,7.14 L33.919,5.52 C30.709,3.196 26.951,1.897 23,1.708 L23,0 L21,0 L21,1.708 C17.048,1.897 13.289,3.196 10.078,5.52 L11.25,7.14 Z M42.32,21 C42.125,17.059 40.826,13.311 38.509,10.108 L36.888,11.281 C38.958,14.14 40.127,17.483 40.32,21 L38,21 L38,23 L40.323,23 C40.139,26.538 38.969,29.902 36.888,32.777 L38.509,33.95 C40.838,30.731 42.137,26.962 42.323,23 L44,23 L44,21 L42.32,21 Z M35.027,10.416 L41.186,4.256 L39.772,2.842 L33.613,9.002 L35.027,10.416 Z M8.972,33.642 L2.812,39.802 L4.226,41.216 L10.386,35.056 L8.972,33.642 Z M12.414,11.001 L1.586,0.173 L0.172,1.587 L11,12.415 L12.414,11.001 Z M33,31.586 L43.826,42.413 L42.412,43.827 L31.586,33 L33,31.586 Z" id="AWS-WAF_Icon_48_Squid"></path>
        </g>
    </g>

    </g>
    <text x="400" y="480" font-size="9" fill="#545b64" text-anchor="middle">WAF</text>
    <text x="400" y="494" font-size="11" fill="#232f3e" text-anchor="middle">cloudfront_…</text>
  </g>
  <g class="node">
    <rect x="520" y="400" width="112" height="104" fill="#ffffff" stroke="#d5dbdb" rx="6" filter="url(#shadow)"/>
    <g transform="translate(552,412) scale(0.75)">

    <title>Icon-Architecture/48/Arch_Amazon-CloudFront_48</title>
    <g id="Icon-Architecture/48/Arch_Amazon-CloudFront_48" stroke="none" stroke-width="1" fill="none" fill-rule="evenodd">
        <g id="Icon-Architecture-BG/48/Networking-Content-Delivery" fill="#8C4FFF">
            <rect id="Rectangle" x="0" y="0" width="64" height="64"></rect>
        </g>
        <path d="M41.5,43.5 C40.397,43.5 39.5,42.603 39.5,41.5 C39.5,40.397 40.397,39.5 41.5,39.5 C42.603,39.5 43.5,40.397 43.5,41.5 C43.5,42.603 42.603,43.5 41.5,43.5 L41.5,43.5 Z M41.5,37.5 C39.294,37.5 37.5,39.294 37.5,41.5 C37.5,43.706 39.294,45.5 41.5,45.5 C43.706,45.5 45.5,43.706 45.5,41.5 C45.5,39.294 43.706,37.5 41.5,37.5 L41.5,37.5 Z M22.5,32.5 C21.397,32.5 20.5,31.603 20.5,30.5 C20.5,29.397 21.397,28.5 22.5,28.5 C23.603,28.5 24.5,29.397 24.5,30.5 C24.5,31.603 23.603,32.5 22.5,32.5 L22.5,32.5 Z M22.5,26.5 C20.294,26.5 18.5,28.294 18.5,30.5 C18.5,32.706 20.294,34.5 22.5,34.5 C24.706,34.5 26.5,32.706 26.5,30.5 C26.5,28.294 24.706,26.5 22.5,26.5 L22.5,26.5 Z M45.389,47.124 C45.168,46.607 44.936,46.094 44.685,45.591 L42.896,46.486 C43.17,47.035 43.42,47.599 43.656,48.165 C42.82,48.762 41.943,49.288 41.028,49.74 C41.384,48.865 41.694,47.975 41.974,47.012 L40.054,46.454 C39.564,48.134 38.985,49.581 38.184,51.133 C36.357,51.698 34.452,52 32.5,52 C29.465,52 26.567,51.314 23.871,49.976 C22.503,46.615 21.838,43.534 21.838,40.559 C21.838,39.267 22.063,38.196 22.322,36.956 C22.386,36.652 22.45,36.343 22.514,36.024 L20.551,35.638 C20.49,35.949 20.427,36.25 20.365,36.545 C20.094,37.838 19.838,39.06 19.838,40.559 C19.838,43.074 20.274,45.644 21.154,48.354 C16.072,44.724 13,38.854 13,32.5 C13,32.389 13.01,32.273 13.012,32.161 C14.642,31.799 16.123,31.614 17.854,31.571 L17.804,29.572 C16.169,29.612 14.694,29.779 13.163,30.084 C14.081,22.683 19.212,16.394 26.323,14.019 C27.873,14.818 29.02,15.524 30.135,16.37 L31.344,14.776 C30.646,14.248 29.934,13.771 29.146,13.299 C30.244,13.108 31.363,13 32.5,13 C35.032,13 37.532,13.494 39.849,14.439 C39.342,14.593 38.82,14.763 38.243,14.971 L38.923,16.852 C40.316,16.349 41.408,16.04 42.571,15.821 C48.399,19.341 52,25.667 52,32.5 C52,38.156 49.605,43.416 45.389,47.124 L45.389,47.124 Z M43.008,13.749 C39.826,11.95 36.192,11 32.5,11 C30.392,11 28.324,11.301 26.357,11.895 C17.723,14.464 11.568,22.23 11.045,31.196 C11.01,31.625 11,32.062 11,32.5 C11,40.444 15.352,47.707 22.354,51.455 C25.459,53.12 28.968,54 32.5,54 C34.892,54 37.229,53.61 39.437,52.843 C41.684,52.086 43.773,50.963 45.646,49.507 C50.955,45.399 54,39.2 54,32.5 C54,24.732 49.787,17.546 43.008,13.749 L43.008,13.749 Z M38.384,37.411 L37.003,38.858 C34.022,36.015 31.047,34.146 27.637,32.975 L28.287,31.083 C31.979,32.351 35.188,34.362 38.384,37.411 L38.384,37.411 Z M38.444,22.364 C41.282,26.692 42.88,31.444 43.193,36.488 L41.197,36.612 C40.905,31.919 39.417,27.495 36.772,23.46 L38.444,22.364 Z M26.451,26.797 L24.773,25.708 C26.316,23.332 27.639,21.758 29.336,20.278 L30.65,21.786 C29.103,23.135 27.886,24.587 26.451,26.797 L26.451,26.797 Z M34.5,16.5 C35.603,16.5 36.5,17.397 36.5,18.5 C36.5,19.603 35.603,20.5 34.5,20.5 C33.397,20.5 32.5,19.603 32.5,18.5 C32.5,17.397 33.397,16.5 34.5,16.5 L34.5,16.5 Z M34.5,22.5 C36.706,22.5 38.5,20.706 38.5,18.5 C38.5,16.294 36.706,14.5 34.5,14.5 C32.294,14.5 30.5,16.294 30.5,18.5 C30.5,20.706 32.294,22.5 34.5,22.5 L34.5,22.5 Z" id="Amazon-CloudFront_Icon_48_Squid" fill="#FFFFFF"></path>
    </g>

    </g>
    <text x="576" y="480" font-size="9" fill="#545b64" text-anchor="middle">CloudFront</text>
    <text x="576" y="494" font-size="11" fill="#232f3e" text-anchor="middle">website</text>
  </g>
  <g class="node">
    <rect x="696" y="400" width="112" height="104" fill="#ffffff" stroke="#d5dbdb" rx="6" filter="url(#shadow)"/>
    <g transform="translate(728,412) scale(0.75)">

    <title>Icon-Architecture/48/Arch_Amazon-Simple-Storage-Service_48</title>
    <g id="Icon-Architecture/48/Arch_Amazon-Simple-Storage-Service_48" stroke="none" stroke-width="1" fill="none" fill-rule="evenodd">
        <g id="Icon-Architecture-BG/48/Storage" fill="#7AA116">
            <rect id="Rectangle" x="0" y="0" width="64" height="64"></rect>
        </g>
        <g id="Icon-Service/48/Amazon-Simple-Storage-Service_48" transform="translate(10.999800, 10.000200)" fill="#FFFFFF">
            <path d="M36.759,23.948 L36.993,22.131 C39.166,23.385 39.842,24.121 40.037,24.424 C39.713,24.485 38.832,24.509 36.759,23.948 L36.759,23.948 Z M19.5,11 C9.125,11 2.382,8.488 2,6.696 L2,6.511 C2.349,5.392 8.14,2 19.5,2 C30.84,2 36.632,5.381 37,6.505 L37,6.616 C36.724,8.446 29.961,11 19.5,11 L19.5,11 Z M34.818,23.362 C30.053,21.797 23.912,18.979 21.594,17.888 C21.535,16.786 20.628,15.906 19.512,15.906 C18.358,15.906 17.418,16.845 17.418,18 C17.418,19.154 18.358,20.094 19.512,20.094 C19.969,20.094 20.389,19.942 20.733,19.693 C23.132,20.822 29.619,23.798 34.558,25.38 L32.837,38.724 C32.583,40.352 27.919,42 19.497,42 C11.072,42 6.405,40.352 6.155,38.751 L2.435,9.814 C5.945,11.915 12.749,13 19.5,13 C26.25,13 33.054,11.915 36.565,9.815 L34.818,23.362 Z M39,6.5 C39,3.431 30.661,0 19.5,0 C8.339,0 -3.55271368e-15,3.431 -3.55271368e-15,6.5 L-3.55271368e-15,7.043 L4.174,39.033 C4.875,43.516 15.123,44 19.497,44 C23.869,44 34.113,43.516 34.818,39.007 L36.501,25.947 C37.778,26.279 38.812,26.456 39.616,26.455 C40.606,26.455 41.273,26.203 41.697,25.697 C42.047,25.281 42.185,24.756 42.085,24.221 C41.857,23 40.403,21.712 37.37,20.044 L37.27,19.989 L39,7.044 L39,6.5 Z" id="Amazon-Simple-Storage-Service-Icon_48_Squid"></path>
        </g>
    </g>

    </g>
    <text x="752" y="480" font-size="9" fill="#545b64" text-anchor="middle">S3</text>
    <text x="752" y="494" font-size="11" fill="#232f3e" text-anchor="middle">website</text>
  </g>
  <g class="node">
    <rect x="872" y="400" width="112" height="104" fill="#ffffff" stroke="#d5dbdb" rx="6" filter="url(#shadow)"/>
    <g transform="translate(904,412) scale(0.75)">

    <title>Icon-Architecture/48/Arch_AWS-Certificate-Manager_48</title>
    <g id="Icon-Architecture/48/Arch_AWS-Certificate-Manager_48" stroke="none" stroke-width="1" fill="none" fill-rule="evenodd">
        <g id="Icon-Architecture-BG/48/Security-Identity-Compliance" fill="#DD344C">
            <rect id="Rectangle" x="0" y="0" width="64" height="64"></rect>
        </g>
        <path d="M28.722,30.981 C28.946,31.214 29.042,31.541 28.983,31.858 L28.394,34.998 L31.486,33.143 C31.644,33.047 31.823,33 32,33 C32.178,33 32.357,33.047 32.515,33.143 L35.608,34.998 L35.018,31.852 C34.958,31.535 35.055,31.209 35.279,30.976 L37.94,28.197 L34.355,27.665 C34.041,27.618 33.769,27.426 33.619,27.147 L31.992,24.104 L30.325,27.158 C30.175,27.432 29.906,27.621 29.596,27.668 L26.057,28.204 L28.722,30.981 Z M26.018,36.815 L26.922,31.995 L23.279,28.197 C23.02,27.927 22.933,27.536 23.054,27.183 C23.174,26.829 23.481,26.572 23.851,26.516 L28.806,25.764 L31.122,21.521 C31.298,21.2 31.635,21 32,21 L32.004,21 C32.371,21.002 32.708,21.205 32.882,21.528 L35.146,25.76 L40.147,26.503 C40.517,26.558 40.826,26.814 40.947,27.168 C41.068,27.523 40.981,27.914 40.722,28.184 L37.077,31.988 L37.983,36.816 C38.056,37.203 37.895,37.596 37.572,37.821 C37.249,38.045 36.825,38.06 36.486,37.857 L32,35.166 L27.515,37.857 C27.356,37.953 27.178,38 27,38 C26.8,38 26.6,37.94 26.429,37.821 C26.106,37.596 25.945,37.203 26.018,36.815 L26.018,36.815 Z M12,17.017 L51.997,17.017 L51.997,13 L12,13 L12,17.017 Z M54,52 C54,52.265 53.895,52.52 53.707,52.707 C53.52,52.895 53.266,53 53,53 L48,53 L48,51 L52,51 L51.998,19.017 L12,19.017 L12,51 L41,51 L41,53 L11,53 C10.448,53 10,52.552 10,52 L10,12 C10,11.448 10.448,11 11,11 L52.997,11 C53.55,11 53.997,11.448 53.997,12 L54,52 Z M19,47 L24,47 L24,45 L19,45 L19,47 Z M27,47 L38,47 L38,45 L27,45 L27,47 Z M19,42.997 L24,42.997 L24,40.997 L19,40.997 L19,42.997 Z M27,43 L45,43 L45,41 L27,41 L27,43 Z" id="AWS-Certificate-Manager_Icon_48_Squid" fill="#FFFFFF"></path>
    </g>

    </g>
    <text x="928" y="480" font-size="9" fill="#545b64" text-anchor="middle">Certificate</text>
    <text x="928" y="494" font-size="11" fill="#232f3e" text-anchor="middle">website</text>
  </g>
  <line x1="464" y1="172" x2="512" y2="172" stroke="#545b64" stroke-width="1.5" marker-end="url(#arrow)"/>
  <line x1="288" y1="172" x2="336" y2="172" stroke="#545b64" stroke-width="1.5" marker-end="url(#arrow)"/>
  <line x1="640" y1="452" x2="688" y2="452" stroke="#545b64" stroke-width="1.5" marker-end="url(#arrow)"/>
  <g class="user" transform="translate(64,266)">
    <circle cx="24" cy="12" r="9" fill="none" stroke="#232f3e" stroke-width="2"/>
    <path d="M8,38 Q8,24 24,24 Q40,24 40,38" fill="none" stroke="#232f3e" stroke-width="2"/>
    <text x="24" y="54" font-size="11" fill="#232f3e" text-anchor="middle">Users</text>
  </g>
  <path d="M112,286 C136,286 136,172 160,172" fill="none" stroke="#545b64" stroke-width="1.5" marker-end="url(#arrow)"/>
  <path d="M112,296 C136,296 136,452 160,452" fill="none" stroke="#545b64" stroke-width="1.5" marker-end="url(#arrow)"/>
  <path d="M112,306 C136,306 136,452 512,452" fill="none" stroke="#545b64" stroke-width="1.5" marker-end="url(#arrow)"/>
</svg>