<?xml version="1.0" encoding="UTF-8"?>
<svg xmlns="http://www.w3.org/2000/svg" width="848" height="704" viewBox="0 0 848 704"
     style="font-family: -apple-system, BlinkMacSystemFont, 'Segoe UI', Roboto, sans-serif;">
  <defs>
    <marker id="arrow" markerWidth="8" markerHeight="6" refX="7" refY="3" orient="auto">
      <path d="M0,0 L0,6 L8,3 z" fill="#545b64"/>
    </marker>
    <marker id="arrow-mid" markerWidth="10" markerHeight="8" refX="5" refY="4" orient="auto">
      <path d="M0,0 L10,4 L0,8 z" fill="#545b64"/>
    </marker>
    <filter id="shadow" x="-20%" y="-20%" width="140%" height="140%">
      <feDropShadow dx="0" dy="2" stdDeviation="3" flood-opacity="0.1"/>
    </filter>
  </defs>
  <rect width="100%" height="100%" fill="#ffffff"/>
  <g class="module">
    <rect x="144" y="64" width="480" height="184" fill="#f8f9fa" stroke="#e9ecef" rx="8"/>
    <rect x="144" y="64" width="480" height="32" fill="#232f3e" rx="8"/>
    <rect x="144" y="88" width="480" height="8" fill="#232f3e"/>
    <text x="160" y="85" font-size="13" font-weight="600" fill="#ffffff">Visitor Counter</text>
  </g>
  <g class="module">
    <rect x="144" y="328" width="640" height="312" fill="#f8f9fa" stroke="#e9ecef" rx="8"/>
    <rect x="144" y="328" width="640" height="32" fill="#232f3e" rx="8"/>
    <rect x="144" y="352" width="640" height="8" fill="#232f3e"/>
    <text x="160" y="349" font-size="13" font-weight="600" fill="#ffffff">Website Frontend</text>
  </g>
  <g class="node">
    <rect x="168" y="120" width="112" height="104" fill="#ffffff" stroke="#d5dbdb" rx="6" filter="url(#shadow)"/>
    <g transform="translate(200,132) scale(0.75)">
<g id="Icon-Architecture/48/Arch_AWS-Lambda_48" stroke="none" stroke-width="1" fill="none" fill-rule="evenodd">
        <g id="Icon-Architecture-BG/48/Compute" fill="#ED7100">
            <rect id="Rectangle" x="0" y="0" width="64" height="64" rx="8"></rect>
        </g>
        <path d="M22.6794094,52 L13.5740701,52 L23.8376189,30.41 L28.3997494,39.861 L22.6794094,52 Z M24.7269406,27.667 C24.5606285,27.321 24.2120702,27.103 23.8306478,27.103 L23.8276601,27.103 C23.4452418,27.104 23.0966835,27.325 22.9323632,27.672 L11.0973143,52.569 C10.9499239,52.879 10.9708374,53.243 11.1540795,53.534 C11.3353298,53.824 11.6540117,54 11.9955989,54 L23.309802,54 C23.695208,54 24.0447622,53.777 24.2100784,53.428 L30.4044577,40.284 C30.5329264,40.01 30.5319305,39.692 30.3994783,39.42 L24.7269406,27.667 Z M51.0082382,52 L41.985557,52 L26.9547262,19.578 C26.7914017,19.226 26.4388599,19 26.0524581,19 L20.1279625,19 L20.1349337,12 L31.8146251,12 L46.7747483,44.42 C46.9380728,44.774 47.2906147,45 47.6790082,45 L51.0082382,45 L51.0082382,52 Z M52.0041191,43 L48.3143803,43 L33.354257,10.58 C33.1909326,10.226 32.8383907,10 32.450993,10 L19.1400486,10 C18.5913182,10 18.1451636,10.447 18.1441677,10.999 L18.1362006,19.999 C18.1362006,20.265 18.2407681,20.519 18.4269979,20.707 C18.6142235,20.895 18.8671772,21 19.1310857,21 L25.4170861,21 L40.4479168,53.422 C40.6112413,53.774 40.9627873,54 41.350185,54 L52.0041191,54 C52.5548412,54 53,53.552 53,53 L53,44 C53,43.448 52.5548412,43 52.0041191,43 L52.0041191,43 Z" id="AWS-Lambda_Icon_48_Squid" fill="#FFFFFF"></path>
    </g>
    </g>
    <text x="224" y="200" font-size="9" fill="#545b64" text-anchor="middle">Lambda URL</text>

  </g>
  <g class="node">
    <rect x="328" y="120" width="112" height="104" fill="#ffffff" stroke="#d5dbdb" rx="6" filter="url(#shadow)"/>
    <g transform="translate(360,132) scale(0.75)">
<g id="Icon-Architecture/48/Arch_AWS-Lambda_48" stroke="none" stroke-width="1" fill="none" fill-rule="evenodd">
        <g id="Icon-Architecture-BG/48/Compute" fill="#ED7100">
            <rect id="Rectangle" x="0" y="0" width="64" height="64" rx="8"></rect>
        </g>
        <path d="M22.6794094,52 L13.5740701,52 L23.8376189,30.41 L28.3997494,39.861 L22.6794094,52 Z M24.7269406,27.667 C24.5606285,27.321 24.2120702,27.103 23.8306478,27.103 L23.8276601,27.103 C23.4452418,27.104 23.0966835,27.325 22.9323632,27.672 L11.0973143,52.569 C10.9499239,52.879 10.9708374,53.243 11.1540795,53.534 C11.3353298,53.824 11.6540117,54 11.9955989,54 L23.309802,54 C23.695208,54 24.0447622,53.777 24.2100784,53.428 L30.4044577,40.284 C30.5329264,40.01 30.5319305,39.692 30.3994783,39.42 L24.7269406,27.667 Z M51.0082382,52 L41.985557,52 L26.9547262,19.578 C26.7914017,19.226 26.4388599,19 26.0524581,19 L20.1279625,19 L20.1349337,12 L31.8146251,12 L46.7747483,44.42 C46.9380728,44.774 47.2906147,45 47.6790082,45 L51.0082382,45 L51.0082382,52 Z M52.0041191,43 L48.3143803,43 L33.354257,10.58 C33.1909326,10.226 32.8383907,10 32.450993,10 L19.1400486,10 C18.5913182,10 18.1451636,10.447 18.1441677,10.999 L18.1362006,19.999 C18.1362006,20.265 18.2407681,20.519 18.4269979,20.707 C18.6142235,20.895 18.8671772,21 19.1310857,21 L25.4170861,21 L40.4479168,53.422 C40.6112413,53.774 40.9627873,54 41.350185,54 L52.0041191,54 C52.5548412,54 53,53.552 53,53 L53,44 C53,43.448 52.5548412,43 52.0041191,43 L52.0041191,43 Z" id="AWS-Lambda_Icon_48_Squid" fill="#FFFFFF"></path>
    </g>
    </g>
    <text x="384" y="200" font-size="9" fill="#545b64" text-anchor="middle">Lambda</text>

  </g>
  <g class="node">
    <rect x="488" y="120" width="112" height="104" fill="#ffffff" stroke="#d5dbdb" rx="6" filter="url(#shadow)"/>
    <g transform="translate(520,132) scale(0.75)">
<g id="Icon-Architecture/48/Arch_Amazon-DynamoDB_48" stroke="none" stroke-width="1" fill="none" fill-rule="evenodd">
        <g id="Icon-Architecture-BG/48/Database" fill="#C925D1">
            <rect id="Rectangle" x="0" y="0" width="64" height="64" rx="8"></rect>
        </g>
        <path d="M46.586,25.249 L43.001,25.249 C42.673,25.249 42.366,25.087 42.179,24.815 C41.992,24.542 41.949,24.194 42.065,23.884 L44.558,17.162 L35.645,17.162 L31.554,26.26 L36.001,26.26 C36.322,26.26 36.624,26.416 36.813,26.681 C37,26.944 37.052,27.282 36.949,27.59 L33.289,38.691 L46.586,25.249 Z M49.707,24.953 L31.708,43.149 C31.516,43.344 31.259,43.445 31.001,43.445 C30.819,43.445 30.638,43.396 30.476,43.295 C30.081,43.048 29.905,42.56 30.053,42.115 L34.613,28.282 L30.001,28.282 C29.661,28.282 29.345,28.107 29.16,27.819 C28.977,27.529 28.95,27.166 29.091,26.853 L34.091,15.733 C34.253,15.372 34.608,15.14 35.001,15.14 L46.001,15.14 C46.329,15.14 46.636,15.303 46.823,15.575 C47.01,15.848 47.053,16.196 46.938,16.506 L44.444,23.227 L49,23.227 C49.404,23.227 49.77,23.474 49.924,23.851 C50.079,24.229 49.993,24.664 49.707,24.953 Z M41.001,44.22 C38.291,46.106 33.314,47.102 28.533,47.102 C23.717,47.102 18.696,46.093 16,44.178 L16.001,47.994 C16.001,49.658 20.769,51.978 28.533,51.978 C36.028,51.978 41.001,49.276 41.001,47.489 L41.001,44.22 Z M43.065,40.95 C43.065,41.137 43.033,41.317 43.001,41.496 L43.001,47.489 C43.001,51.08 36.511,54 28.533,54 C21.63,54 14.662,52.111 14.06,48.5 L14,43.445 L14,30.304 L14,16.151 L14.001,16.151 C14.001,12.155 21.488,10 28.533,10 C32.474,10 36.263,10.64 38.93,11.756 L38.164,13.624 C35.732,12.605 32.221,12.022 28.533,12.022 C20.769,12.022 16.001,14.427 16.001,16.151 C16.001,17.876 20.769,20.281 28.533,20.281 C28.728,20.281 28.932,20.282 29.129,20.274 L29.207,22.293 C28.982,22.303 28.758,22.303 28.533,22.303 C23.716,22.303 18.696,21.294 16,19.379 L16,23.737 L16.001,23.754 C16.006,24.284 16.49,24.897 17.365,25.474 C19.347,26.762 22.915,27.642 26.904,27.825 L26.813,29.845 C22.687,29.655 19.063,28.776 16.727,27.429 C16.417,27.727 16.001,28.485 16.001,28.896 C16.001,30.62 20.769,33.025 28.533,33.025 C29.271,33.025 29.998,33 30.695,32.95 L30.836,34.967 C30.092,35.021 29.317,35.047 28.533,35.047 C23.716,35.047 18.696,34.038 16,32.123 L16,35.793 L16.001,35.793 C16.006,36.34 16.49,36.953 17.365,37.53 C19.633,39.004 23.914,39.923 28.533,39.923 L28.863,39.923 L28.863,41.945 L28.533,41.945 C23.755,41.945 18.673,40.937 16.001,39.402 C15.679,39.7 16.001,40.413 16.001,40.95 C16.001,42.675 20.769,45.08 28.533,45.08 C36.298,45.08 41.065,42.675 41.065,40.95 C41.065,40.341 40.466,39.776 39.973,39.412 C39.564,39.659 39.114,39.895 38.601,40.111 L37.833,38.244 C38.364,38.021 38.823,37.781 39.197,37.533 C40.298,36.799 41.001,35.754 41.001,35.358 L43.001,35.358 C43.001,36.298 42.38,37.305 41.584,38.133 C42.776,39.173 43.065,40.211 43.065,40.95 Z" id="Amazon-DynamoDB_Icon_48_Squid" fill="#FFFFFF"></path>
    </g>
    </g>
    <text x="544" y="200" font-size="9" fill="#545b64" text-anchor="middle">DynamoDB</text>

  </g>
  <g class="node">
    <rect x="168" y="384" width="112" height="104" fill="#ffffff" stroke="#d5dbdb" rx="6" filter="url(#shadow)"/>
    <g transform="translate(200,396) scale(0.75)">
<g id="Icon-Architecture/48/Arch_Amazon-Route-53_48" stroke="none" stroke-width="1" fill="none" fill-rule="evenodd">
        <g id="Icon-Architecture-BG/48/Networking-Content-Delivery" fill="#8C4FFF">
            <rect id="Rectangle" x="0" y="0" width="64" height="64" rx="8"></rect>
        </g>
        <path d="M38.761,32.527 C39.336,33.058 39.623,33.77 39.623,34.664 C39.623,35.637 39.274,36.413 38.574,36.994 C37.875,37.575 36.935,37.865 35.754,37.865 C34.822,37.865 33.899,37.666 32.986,37.27 L32.986,36.078 C34.067,36.435 34.99,36.614 35.754,36.614 C36.508,36.614 37.088,36.445 37.495,36.108 C37.903,35.771 38.106,35.289 38.106,34.664 C38.106,33.463 37.347,32.862 35.828,32.862 C35.352,32.862 34.881,32.887 34.414,32.936 L34.414,31.953 L37.54,28.544 L33.134,28.544 L33.134,27.322 L39.193,27.322 L39.193,28.499 L36.126,31.745 C36.176,31.735 36.225,31.73 36.275,31.73 L36.424,31.73 C37.407,31.73 38.185,31.996 38.761,32.527 M30.114,32.266 C30.718,32.833 31.021,33.611 31.021,34.604 C31.021,35.577 30.668,36.363 29.964,36.965 C29.259,37.565 28.331,37.865 27.181,37.865 C26.169,37.865 25.221,37.666 24.338,37.27 L24.338,36.078 C25.44,36.435 26.382,36.614 27.166,36.614 C27.92,36.614 28.498,36.443 28.9,36.101 C29.302,35.758 29.502,35.265 29.502,34.619 C29.502,33.914 29.315,33.403 28.937,33.085 C28.56,32.768 27.945,32.609 27.091,32.609 C26.476,32.609 25.707,32.659 24.784,32.758 L24.784,31.775 L25.068,27.322 L30.5,27.322 L30.5,28.544 L26.318,28.544 L26.123,31.567 C26.669,31.467 27.16,31.417 27.597,31.417 C28.669,31.417 29.508,31.7 30.114,32.266 M41.261,42.964 C37.516,43.636 34.233,45.146 32,46.395 C29.768,45.146 26.485,43.636 22.74,42.964 C21.708,42.779 16.566,41.708 16.566,38.825 C16.566,37.463 17.063,36.542 18.017,34.9 C19.133,32.974 20.663,30.336 20.663,26.674 C20.663,24.11 20.004,21.651 18.703,19.353 C18.792,19.244 18.882,19.133 18.972,19.023 C20.927,19.972 22.959,20.453 25.025,20.453 C27.571,20.453 29.914,19.796 32,18.502 C34.086,19.796 36.43,20.453 38.976,20.453 C41.041,20.453 43.073,19.972 45.029,19.023 C45.118,19.133 45.208,19.244 45.297,19.353 C43.996,21.651 43.337,24.11 43.337,26.674 C43.337,30.336 44.867,32.974 45.984,34.9 C46.938,36.542 47.435,37.463 47.435,38.825 C47.435,41.708 42.292,42.779 41.261,42.964 M45.337,26.674 C45.337,24.259 46.019,21.944 47.362,19.792 C47.589,19.429 47.559,18.961 47.288,18.63 C46.893,18.145 46.479,17.636 46.07,17.13 C45.766,16.753 45.234,16.65 44.809,16.884 C42.926,17.924 40.963,18.452 38.976,18.452 C36.576,18.452 34.482,17.808 32.57,16.483 C32.228,16.245 31.773,16.245 31.431,16.483 C29.519,17.808 27.424,18.452 25.025,18.452 C23.037,18.452 21.074,17.924 19.192,16.884 C18.766,16.65 18.236,16.753 17.931,17.13 C17.522,17.636 17.108,18.145 16.712,18.63 C16.442,18.961 16.411,19.429 16.639,19.792 C17.982,21.944 18.663,24.259 18.663,26.674 C18.663,29.798 17.401,31.974 16.286,33.895 C15.22,35.734 14.566,36.956 14.566,38.825 C14.566,43.188 20.551,44.603 22.386,44.933 C26.136,45.607 29.41,47.198 31.497,48.412 C31.653,48.502 31.826,48.548 32,48.548 C32.174,48.548 32.348,48.502 32.503,48.412 C34.59,47.198 37.865,45.607 41.615,44.933 C43.449,44.603 49.435,43.188 49.435,38.825 C49.435,36.956 48.781,35.734 47.714,33.895 C46.6,31.974 45.337,29.798 45.337,26.674" id="Amazon-Route-53-Icon_48_Squid" fill="#FFFFFF"></path>
    </g>
    </g>
    <text x="224" y="464" font-size="9" fill="#545b64" text-anchor="middle">Route 53</text>
    <text x="224" y="478" font-size="11" fill="#232f3e" text-anchor="middle">main</text>
  </g>
  <g class="node">
    <rect x="328" y="384" width="112" height="104" fill="#ffffff" stroke="#d5dbdb" rx="6" filter="url(#shadow)"/>
    <g transform="translate(360,396) scale(0.75)">
<g id="Icon-Architecture/48/Arch_AWS-WAF_48" stroke="none" stroke-width="1" fill="none" fill-rule="evenodd">
        <g id="Icon-Architecture-BG/48/Security-Identity-Compliance" fill="#DD344C">
            <rect id="Rectangle" x="0" y="0" width="64" height="64" rx="8"></rect>
        </g>
        <g id="Icon-Service/48/AWS-WAF_48" transform="translate(10, 10)" fill="#FFFFFF">
            <path d="M16.929,30.397 C17.816,31.015 18.833,31.581 19.969,32.089 C19.492,29.713 19.175,25.602 21.312,21.671 C22.905,18.743 23.168,15.417 22,12.99 C21.548,12.05 20.9,11.28 20.078,10.698 C20.84,12.457 21.268,14.997 20.116,18.27 C19.984,18.644 19.645,18.904 19.249,18.935 C18.866,18.967 18.48,18.76 18.291,18.412 C17.96,17.796 17.049,16.408 16.008,15.579 C16.416,17.455 16.675,20.262 15.335,22.367 C15.263,22.48 15.197,22.59 15.134,22.701 C13.664,25.29 14.452,28.671 16.929,30.397 L16.929,30.397 Z M24.471,14.155 C25.036,16.804 24.563,19.88 23.07,22.626 C20.905,26.607 21.707,30.945 22.161,32.651 C24.117,32.322 29.063,31.094 30.119,27.002 C31.133,23.076 30.52,20.803 29.81,19.578 C29.101,22.122 27.802,23.193 27.735,23.247 C27.411,23.506 26.963,23.539 26.606,23.333 C26.248,23.125 26.056,22.718 26.121,22.309 C26.727,18.541 25.761,15.919 24.471,14.155 L24.471,14.155 Z M13.65,21.29 C15.259,18.763 13.576,14.325 13.559,14.28 C13.441,13.973 13.481,13.626 13.667,13.354 C13.854,13.082 14.161,12.919 14.491,12.919 C16.242,12.919 17.739,14.274 18.741,15.512 C19.27,11.523 16.864,9.428 16.744,9.328 C16.4,9.036 16.291,8.546 16.484,8.137 C16.676,7.728 17.114,7.491 17.561,7.576 C19.035,7.837 20.334,8.398 21.411,9.209 C22.366,9.636 27.137,12.048 28.125,17.909 C28.153,17.733 28.176,17.549 28.197,17.359 C28.231,17.026 28.43,16.732 28.727,16.577 C29.025,16.421 29.379,16.425 29.671,16.585 C29.858,16.688 34.204,19.18 32.055,27.502 C30.38,33.99 21.875,34.729 21.514,34.757 L21.513,34.747 C21.491,34.749 21.472,34.76 21.45,34.76 C21.338,34.76 21.224,34.741 21.115,34.701 C19.061,33.967 17.268,33.071 15.785,32.038 C12.471,29.728 11.421,25.191 13.395,21.711 C13.476,21.57 13.56,21.43 13.65,21.29 L13.65,21.29 Z M5.49,33.95 L7.111,32.777 C5.03,29.902 3.86,26.538 3.676,23 L6,23 L6,21 L3.679,21 C3.871,17.483 5.04,14.14 7.111,11.281 L5.49,10.108 C3.172,13.311 1.873,17.059 1.679,21 L0,21 L0,23 L1.676,23 C1.862,26.962 3.16,30.731 5.49,33.95 L5.49,33.95 Z M32.747,36.918 C29.88,38.993 26.528,40.162 23,40.351 L23,38 L21,38 L21,40.351 C17.472,40.163 14.118,38.994 11.25,36.918 L10.078,38.539 C13.289,40.862 17.049,42.161 21,42.351 L21,44 L23,44 L23,42.351 C26.951,42.16 30.709,40.862 33.919,38.539 L32.747,36.918 Z M11.25,7.14 C14.118,5.064 17.472,3.896 21,3.708 L21,6 L23,6 L23,3.708 C26.528,3.896 29.88,5.065 32.747,7.14 L33.919,5.52 C30.709,3.196 26.951,1.897 23,1.708 L23,0 L21,0 L21,1.708 C17.048,1.897 13.289,3.196 10.078,5.52 L11.25,7.14 Z M42.32,21 C42.125,17.059 40.826,13.311 38.509,10.108 L36.888,11.281 C38.958,14.14 40.127,17.483 40.32,21 L38,21 L38,23 L40.323,23 C40.139,26.538 38.969,29.902 36.888,32.777 L38.509,33.95 C40.838,30.731 42.137,26.962 42.323,23 L44,23 L44,21 L42.32,21 Z" id="AWS-WAF_Icon_48_Squid"></path>
        </g>
    </g>
    </g>
    <text x="384" y="464" font-size="9" fill="#545b64" text-anchor="middle">WAF</text>
    <text x="384" y="478" font-size="11" fill="#232f3e" text-anchor="middle">cloudfront_…</text>
  </g>
  <g class="node">
    <rect x="488" y="384" width="112" height="104" fill="#ffffff" stroke="#d5dbdb" rx="6" filter="url(#shadow)"/>
    <g transform="translate(520,396) scale(0.75)">
<g id="Icon-Architecture/48/Arch_Amazon-CloudFront_48" stroke="none" stroke-width="1" fill="none" fill-rule="evenodd">
        <g id="Icon-Architecture-BG/48/Networking-Content-Delivery" fill="#8C4FFF">
            <rect id="Rectangle" x="0" y="0" width="64" height="64" rx="8"></rect>
        </g>
        <path d="M41.5,43.5 C40.397,43.5 39.5,42.603 39.5,41.5 C39.5,40.397 40.397,39.5 41.5,39.5 C42.603,39.5 43.5,40.397 43.5,41.5 C43.5,42.603 42.603,43.5 41.5,43.5 L41.5,43.5 Z M41.5,37.5 C39.294,37.5 37.5,39.294 37.5,41.5 C37.5,43.706 39.294,45.5 41.5,45.5 C43.706,45.5 45.5,43.706 45.5,41.5 C45.5,39.294 43.706,37.5 41.5,37.5 L41.5,37.5 Z M22.5,32.5 C21.397,32.5 20.5,31.603 20.5,30.5 C20.5,29.397 21.397,28.5 22.5,28.5 C23.603,28.5 24.5,29.397 24.5,30.5 C24.5,31.603 23.603,32.5 22.5,32.5 L22.5,32.5 Z M22.5,26.5 C20.294,26.5 18.5,28.294 18.5,30.5 C18.5,32.706 20.294,34.5 22.5,34.5 C24.706,34.5 26.5,32.706 26.5,30.5 C26.5,28.294 24.706,26.5 22.5,26.5 L22.5,26.5 Z M45.389,47.124 C45.168,46.607 44.936,46.094 44.685,45.591 L42.896,46.486 C43.17,47.035 43.42,47.599 43.656,48.165 C42.82,48.762 41.943,49.288 41.028,49.74 C41.384,48.865 41.694,47.975 41.974,47.012 L40.054,46.454 C39.564,48.134 38.985,49.581 38.184,51.133 C36.357,51.698 34.452,52 32.5,52 C29.465,52 26.567,51.314 23.871,49.976 C22.503,46.615 21.838,43.534 21.838,40.559 C21.838,39.267 22.063,38.196 22.322,36.956 C22.386,36.652 22.45,36.343 22.514,36.024 L20.551,35.638 C20.49,35.949 20.427,36.25 20.365,36.545 C20.094,37.838 19.838,39.06 19.838,40.559 C19.838,43.074 20.274,45.644 21.154,48.354 C16.072,44.724 13,38.854 13,32.5 C13,32.389 13.01,32.273 13.012,32.161 C14.642,31.799 16.123,31.614 17.854,31.571 L17.804,29.572 C16.169,29.612 14.694,29.779 13.163,30.084 C14.081,22.683 19.212,16.394 26.323,14.019 C27.873,14.818 29.02,15.524 30.135,16.37 L31.344,14.776 C30.646,14.248 29.934,13.771 29.146,13.299 C30.244,13.108 31.363,13 32.5,13 C35.032,13 37.532,13.494 39.849,14.439 C39.342,14.593 38.82,14.763 38.243,14.971 L38.923,16.852 C40.316,16.349 41.408,16.04 42.571,15.821 C48.399,19.341 52,25.667 52,32.5 C52,38.156 49.605,43.416 45.389,47.124 L45.389,47.124 Z M43.008,13.749 C39.826,11.95 36.192,11 32.5,11 C30.392,11 28.324,11.301 26.357,11.895 C17.723,14.464 11.568,22.23 11.045,31.196 C11.01,31.625 11,32.062 11,32.5 C11,40.444 15.352,47.707 22.354,51.455 C25.459,53.12 28.968,54 32.5,54 C34.892,54 37.229,53.61 39.437,52.843 C41.684,52.086 43.773,50.963 45.646,49.507 C50.955,45.399 54,39.2 54,32.5 C54,24.732 49.787,17.546 43.008,13.749 L43.008,13.749 Z M38.384,37.411 L37.003,38.858 C34.022,36.015 31.047,34.146 27.637,32.975 L28.287,31.083 C31.979,32.351 35.188,34.362 38.384,37.411 L38.384,37.411 Z M38.444,22.364 C41.282,26.692 42.88,31.444 43.193,36.488 L41.197,36.612 C40.905,31.919 39.417,27.495 36.772,23.46 L38.444,22.364 Z M26.451,26.797 L24.773,25.708 C26.316,23.332 27.639,21.758 29.336,20.278 L30.65,21.786 C29.103,23.135 27.886,24.587 26.451,26.797 L26.451,26.797 Z M34.5,16.5 C35.603,16.5 36.5,17.397 36.5,18.5 C36.5,19.603 35.603,20.5 34.5,20.5 C33.397,20.5 32.5,19.603 32.5,18.5 C32.5,17.397 33.397,16.5 34.5,16.5 L34.5,16.5 Z M34.5,22.5 C36.706,22.5 38.5,20.706 38.5,18.5 C38.5,16.294 36.706,14.5 34.5,14.5 C32.294,14.5 30.5,16.294 30.5,18.5 C30.5,20.706 32.294,22.5 34.5,22.5 L34.5,22.5 Z" id="Amazon-CloudFront_Icon_48_Squid" fill="#FFFFFF"></path>
    </g>
    </g>
    <text x="544" y="464" font-size="9" fill="#545b64" text-anchor="middle">CloudFront</text>

  </g>
  <g class="node">
    <rect x="648" y="384" width="112" height="104" fill="#ffffff" stroke="#d5dbdb" rx="6" filter="url(#shadow)"/>
    <g transform="translate(680,396) scale(0.75)">
<g id="Icon-Architecture/48/Arch_Amazon-Simple-Storage-Service_48" stroke="none" stroke-width="1" fill="none" fill-rule="evenodd">
        <g id="Icon-Architecture-BG/48/Storage" fill="#7AA116">
            <rect id="Rectangle" x="0" y="0" width="64" height="64" rx="8"></rect>
        </g>
        <g id="Icon-Service/48/Amazon-Simple-Storage-Service_48" transform="translate(11, 10)" fill="#FFFFFF">
            <path d="M36.759,23.948 L36.993,22.131 C39.166,23.385 39.842,24.121 40.037,24.424 C39.713,24.485 38.832,24.509 36.759,23.948 L36.759,23.948 Z M19.5,11 C9.125,11 2.382,8.488 2,6.696 L2,6.511 C2.349,5.392 8.14,2 19.5,2 C30.84,2 36.632,5.381 37,6.505 L37,6.616 C36.724,8.446 29.961,11 19.5,11 L19.5,11 Z M34.818,23.362 C30.053,21.797 23.912,18.979 21.594,17.888 C21.535,16.786 20.628,15.906 19.512,15.906 C18.358,15.906 17.418,16.845 17.418,18 C17.418,19.154 18.358,20.094 19.512,20.094 C19.969,20.094 20.389,19.942 20.733,19.693 C23.132,20.822 29.619,23.798 34.558,25.38 L32.837,38.724 C32.583,40.352 27.919,42 19.497,42 C11.072,42 6.405,40.352 6.155,38.751 L2.435,9.814 C5.945,11.915 12.749,13 19.5,13 C26.25,13 33.054,11.915 36.565,9.815 L34.818,23.362 Z M39,6.5 C39,3.431 30.661,0 19.5,0 C8.339,0 0,3.431 0,6.5 L0,7.043 L4.174,39.033 C4.875,43.516 15.123,44 19.497,44 C23.869,44 34.113,43.516 34.818,39.007 L36.501,25.947 C37.778,26.279 38.812,26.456 39.616,26.455 C40.606,26.455 41.273,26.203 41.697,25.697 C42.047,25.281 42.185,24.756 42.085,24.221 C41.857,23 40.403,21.712 37.37,20.044 L37.27,19.989 L39,7.044 L39,6.5 Z" id="Amazon-Simple-Storage-Service-Icon_48_Squid"></path>
        </g>
    </g>
    </g>
    <text x="704" y="464" font-size="9" fill="#545b64" text-anchor="middle">S3</text>

  </g>
  <g class="node">
    <rect x="168" y="512" width="112" height="104" fill="#ffffff" stroke="#d5dbdb" rx="6" filter="url(#shadow)"/>
    <g transform="translate(200,524) scale(0.75)">
<g id="Icon-Architecture/48/Arch_AWS-Certificate-Manager_48" stroke="none" stroke-width="1" fill="none" fill-rule="evenodd">
        <g id="Icon-Architecture-BG/48/Security-Identity-Compliance" fill="#DD344C">
            <rect id="Rectangle" x="0" y="0" width="64" height="64" rx="8"></rect>
        </g>
        <path d="M28.722,30.981 C28.946,31.214 29.042,31.541 28.983,31.858 L28.394,34.998 L31.486,33.143 C31.644,33.047 31.823,33 32,33 C32.178,33 32.357,33.047 32.515,33.143 L35.608,34.998 L35.018,31.852 C34.958,31.535 35.055,31.209 35.279,30.976 L37.94,28.197 L34.355,27.665 C34.041,27.618 33.769,27.426 33.619,27.147 L31.992,24.104 L30.325,27.158 C30.175,27.432 29.906,27.621 29.596,27.668 L26.057,28.204 L28.722,30.981 Z M26.018,36.815 L26.922,31.995 L23.279,28.197 C23.02,27.927 22.933,27.536 23.054,27.183 C23.174,26.829 23.481,26.572 23.851,26.516 L28.806,25.764 L31.122,21.521 C31.298,21.2 31.635,21 32,21 L32.004,21 C32.371,21.002 32.708,21.205 32.882,21.528 L35.146,25.76 L40.147,26.503 C40.517,26.558 40.826,26.814 40.947,27.168 C41.068,27.523 40.981,27.914 40.722,28.184 L37.077,31.988 L37.983,36.816 C38.056,37.203 37.895,37.596 37.572,37.821 C37.249,38.045 36.825,38.06 36.486,37.857 L32,35.166 L27.515,37.857 C27.356,37.953 27.178,38 27,38 C26.8,38 26.6,37.94 26.429,37.821 C26.106,37.596 25.945,37.203 26.018,36.815 L26.018,36.815 Z M12,17.017 L51.997,17.017 L51.997,13 L12,13 L12,17.017 Z M54,52 C54,52.265 53.895,52.52 53.707,52.707 C53.52,52.895 53.266,53 53,53 L48,53 L48,51 L52,51 L51.998,19.017 L12,19.017 L12,51 L41,51 L41,53 L11,53 C10.448,53 10,52.552 10,52 L10,12 C10,11.448 10.448,11 11,11 L52.997,11 C53.55,11 53.997,11.448 53.997,12 L54,52 Z M19,47 L24,47 L24,45 L19,45 L19,47 Z M27,47 L38,47 L38,45 L27,45 L27,47 Z M19,42.997 L24,42.997 L24,40.997 L19,40.997 L19,42.997 Z M27,43 L45,43 L45,41 L27,41 L27,43 Z" id="AWS-Certificate-Manager_Icon_48_Squid" fill="#FFFFFF"></path>
    </g>
    </g>
    <text x="224" y="592" font-size="9" fill="#545b64" text-anchor="middle">ACM Cert</text>

  </g>
  <line x1="448" y1="172" x2="480" y2="172" stroke="#545b64" stroke-width="1.5" marker-end="url(#arrow)"/>
  <line x1="288" y1="172" x2="320" y2="172" stroke="#545b64" stroke-width="1.5" marker-end="url(#arrow)"/>
  <line x1="608" y1="436" x2="640" y2="436" stroke="#545b64" stroke-width="1.5" marker-end="url(#arrow)"/>
  <line x1="448" y1="436" x2="480" y2="436" stroke="#545b64" stroke-width="1.5" marker-end="url(#arrow)"/>
  <line x1="288" y1="436" x2="320" y2="436" stroke="#545b64" stroke-width="1.5" marker-end="url(#arrow)"/>
  <path d="M544,376 C544,304 224,304 224,232" fill="none" stroke="#545b64" stroke-width="1.5" stroke-dasharray="4,3"/>
  <path d="M704,376 C704,304 224,304 224,232" fill="none" stroke="#545b64" stroke-width="1.5" stroke-dasharray="4,3"/>
  <g class="user" transform="translate(64,322)">
    <circle cx="24" cy="12" r="9" fill="none" stroke="#232f3e" stroke-width="2"/>
    <path d="M8,38 Q8,24 24,24 Q40,24 40,38" fill="none" stroke="#232f3e" stroke-width="2"/>
    <text x="24" y="54" font-size="11" fill="#232f3e" text-anchor="middle">Users</text>
  </g>
  <path d="M112,340 C136,340 136,172 160,172" fill="none" stroke="#545b64" stroke-width="1.5"/>
  <path d="M112,352 C136,352 136,436 160,436" fill="none" stroke="#545b64" stroke-width="1.5"/>
</svg>