<?xml version="1.0" encoding="UTF-8"?>
<svg xmlns="http://www.w3.org/2000/svg" width="848" height="704" viewBox="0 0 848 704"
     style="font-family: -apple-system, BlinkMacSystemFont, 'Segoe UI', Roboto, sans-serif;">
  <defs>
    <marker id="arrow" markerWidth="8" markerHeight="6" refX="7" refY="3" orient="auto">
      <path d="M0,0 L0,6 L8,3 z" fill="#545b64"/>
    </marker>
    <filter id="shadow" x="-20%" y="-20%" width="140%" height="140%">
      <feDropShadow dx="0" dy="2" stdDeviation="3" flood-opacity="0.1"/>
    </filter>
  </defs>
  <rect width="100%" height="100%" fill="#ffffff"/>
  <g class="module">
    <rect x="144" y="64" width="480" height="184" fill="#f8f9fa" stroke="#e9ecef" rx="8"/>
    <rect x="144" y="64" width="480" height="32" fill="#232f3e" rx="8"/>
    <rect x="144" y="88" width="480" height="8" fill="#232f3e"/>
    <text x="160" y="85" font-size="13" font-weight="600" fill="#ffffff">Visitor Counter</text>
  </g>
  <g class="module">
    <rect x="144" y="328" width="640" height="312" fill="#f8f9fa" stroke="#e9ecef" rx="8"/>
    <rect x="144" y="328" width="640" height="32" fill="#232f3e" rx="8"/>
    <rect x="144" y="352" width="640" height="8" fill="#232f3e"/>
    <text x="160" y="349" font-size="13" font-weight="600" fill="#ffffff">Website Frontend</text>
  </g>
  <g class="node">
    <rect x="168" y="120" width="112" height="104" fill="#ffffff" stroke="#d5dbdb" rx="6" filter="url(#shadow)"/>
    <rect x="200" y="132" width="48" height="48" rx="6" fill="#ED7100"/>
    <text x="224" y="164" font-size="14" font-weight="600" fill="white" text-anchor="middle">λ</text>
    <text x="224" y="200" font-size="9" fill="#545b64" text-anchor="middle">Lambda URL</text>
    <text x="224" y="214" font-size="11" fill="#232f3e" text-anchor="middle">counter</text>
  </g>
  <g class="node">
    <rect x="328" y="120" width="112" height="104" fill="#ffffff" stroke="#d5dbdb" rx="6" filter="url(#shadow)"/>
    <rect x="360" y="132" width="48" height="48" rx="6" fill="#ED7100"/>
    <text x="384" y="164" font-size="14" font-weight="600" fill="white" text-anchor="middle">λ</text>
    <text x="384" y="200" font-size="9" fill="#545b64" text-anchor="middle">Lambda</text>
    <text x="384" y="214" font-size="11" fill="#232f3e" text-anchor="middle">counter</text>
  </g>
  <g class="node">
    <rect x="488" y="120" width="112" height="104" fill="#ffffff" stroke="#d5dbdb" rx="6" filter="url(#shadow)"/>
    <rect x="520" y="132" width="48" height="48" rx="6" fill="#C925D1"/>
    <text x="544" y="164" font-size="14" font-weight="600" fill="white" text-anchor="middle">DDB</text>
    <text x="544" y="200" font-size="9" fill="#545b64" text-anchor="middle">DynamoDB</text>
    <text x="544" y="214" font-size="11" fill="#232f3e" text-anchor="middle">counter</text>
  </g>
  <g class="node">
    <rect x="168" y="384" width="112" height="104" fill="#ffffff" stroke="#d5dbdb" rx="6" filter="url(#shadow)"/>
    <rect x="200" y="396" width="48" height="48" rx="6" fill="#8C4FFF"/>
    <text x="224" y="428" font-size="14" font-weight="600" fill="white" text-anchor="middle">R53</text>
    <text x="224" y="464" font-size="9" fill="#545b64" text-anchor="middle">Route 53</text>
    <text x="224" y="478" font-size="11" fill="#232f3e" text-anchor="middle">main</text>
  </g>
  <g class="node">
    <rect x="328" y="384" width="112" height="104" fill="#ffffff" stroke="#d5dbdb" rx="6" filter="url(#shadow)"/>
    <rect x="360" y="396" width="48" height="48" rx="6" fill="#DD344C"/>
    <text x="384" y="428" font-size="14" font-weight="600" fill="white" text-anchor="middle">WAF</text>
    <text x="384" y="464" font-size="9" fill="#545b64" text-anchor="middle">WAF</text>
    <text x="384" y="478" font-size="11" fill="#232f3e" text-anchor="middle">cloudfront_…</text>
  </g>
  <g class="node">
    <rect x="488" y="384" width="112" height="104" fill="#ffffff" stroke="#d5dbdb" rx="6" filter="url(#shadow)"/>
    <rect x="520" y="396" width="48" height="48" rx="6" fill="#8C4FFF"/>
    <text x="544" y="428" font-size="14" font-weight="600" fill="white" text-anchor="middle">CF</text>
    <text x="544" y="464" font-size="9" fill="#545b64" text-anchor="middle">CloudFront</text>
    <text x="544" y="478" font-size="11" fill="#232f3e" text-anchor="middle">website</text>
  </g>
  <g class="node">
    <rect x="648" y="384" width="112" height="104" fill="#ffffff" stroke="#d5dbdb" rx="6" filter="url(#shadow)"/>
    <rect x="680" y="396" width="48" height="48" rx="6" fill="#7AA116"/>
    <text x="704" y="428" font-size="14" font-weight="600" fill="white" text-anchor="middle">S3</text>
    <text x="704" y="464" font-size="9" fill="#545b64" text-anchor="middle">S3</text>
    <text x="704" y="478" font-size="11" fill="#232f3e" text-anchor="middle">website</text>
  </g>
  <g class="node">
    <rect x="168" y="512" width="112" height="104" fill="#ffffff" stroke="#d5dbdb" rx="6" filter="url(#shadow)"/>
    <rect x="200" y="524" width="48" height="48" rx="6" fill="#DD344C"/>
    <text x="224" y="556" font-size="14" font-weight="600" fill="white" text-anchor="middle">ACM</text>
    <text x="224" y="592" font-size="9" fill="#545b64" text-anchor="middle">ACM Cert</text>
    <text x="224" y="606" font-size="11" fill="#232f3e" text-anchor="middle">website</text>
  </g>
  <line x1="448" y1="172" x2="480" y2="172" stroke="#545b64" stroke-width="1.5" marker-end="url(#arrow)"/>
  <line x1="288" y1="172" x2="320" y2="172" stroke="#545b64" stroke-width="1.5" marker-end="url(#arrow)"/>
  <line x1="608" y1="436" x2="640" y2="436" stroke="#545b64" stroke-width="1.5" marker-end="url(#arrow)"/>
  <line x1="448" y1="436" x2="480" y2="436" stroke="#545b64" stroke-width="1.5" marker-end="url(#arrow)"/>
  <line x1="288" y1="436" x2="320" y2="436" stroke="#545b64" stroke-width="1.5" marker-end="url(#arrow)"/>
  <g class="user" transform="translate(64,322)">
    <circle cx="24" cy="12" r="9" fill="none" stroke="#232f3e" stroke-width="2"/>
    <path d="M8,38 Q8,24 24,24 Q40,24 40,38" fill="none" stroke="#232f3e" stroke-width="2"/>
    <text x="24" y="54" font-size="11" fill="#232f3e" text-anchor="middle">Users</text>
  </g>
  <path d="M112,340 C136,340 136,172 160,172" fill="none" stroke="#545b64" stroke-width="1.5" marker-end="url(#arrow)"/>
  <path d="M112,352 C136,352 136,436 160,436" fill="none" stroke="#545b64" stroke-width="1.5" marker-end="url(#arrow)"/>
</svg>