<?xml version="1.0" encoding="UTF-8"?>
<svg xmlns="http://www.w3.org/2000/svg" 
     xmlns:xlink="http://www.w3.org/1999/xlink"
     width="760" height="800" 
     viewBox="0 0 760 800">
  <defs>
    <marker id="arrowhead" markerWidth="10" markerHeight="7" refX="9" refY="3.5" orient="auto">
      <polygon points="0 0, 10 3.5, 0 7" fill="#666666" />
    </marker>
  </defs>
  <rect width="100%" height="100%" fill="#ffffff"/>
  <rect x="190" y="50" width="200" height="700" fill="#f5f9fc" stroke="#d4e4ed" stroke-width="1" rx="12" />
  <text x="290" y="70" font-family="Arial, sans-serif" font-size="13" font-weight="bold" fill="#232f3e" text-anchor="middle">Visitor Counter</text>
  <rect x="450" y="50" width="200" height="700" fill="#f5f9fc" stroke="#d4e4ed" stroke-width="1" rx="12" />
  <text x="550" y="70" font-family="Arial, sans-serif" font-size="13" font-weight="bold" fill="#232f3e" text-anchor="middle">Website Frontend</text>
  <rect x="220" y="110" width="140" height="90" fill="#ffffff" stroke="#d4d4d4" stroke-width="1" rx="8" />
  <g transform="translate(266, 118)">
    <g transform="scale(1.0, 1.0)">
    <rect width="48" height="48" rx="8" fill="#ED7100" opacity="0.2"/>
    <rect x="4" y="4" width="40" height="40" rx="6" fill="#ED7100"/>
    <text x="24" y="28" font-family="Arial" font-size="10" fill="white" text-anchor="middle">LAM</text>

    </g>
  </g>
  <text x="290" y="190" font-family="Arial, sans-serif" font-size="11" font-weight="normal" fill="#232f3e" text-anchor="middle">counter</text>
  <rect x="220" y="240" width="140" height="90" fill="#ffffff" stroke="#d4d4d4" stroke-width="1" rx="8" />
  <g transform="translate(266, 248)">
    <g transform="scale(1.0, 1.0)">
    <rect width="48" height="48" rx="8" fill="#ED7100" opacity="0.2"/>
    <rect x="4" y="4" width="40" height="40" rx="6" fill="#ED7100"/>
    <text x="24" y="28" font-family="Arial" font-size="10" fill="white" text-anchor="middle">LAM</text>

    </g>
  </g>
  <text x="290" y="320" font-family="Arial, sans-serif" font-size="11" font-weight="normal" fill="#232f3e" text-anchor="middle">counter</text>
  <rect x="220" y="370" width="140" height="90" fill="#ffffff" stroke="#d4d4d4" stroke-width="1" rx="8" />
  <g transform="translate(266, 378)">
    <g transform="scale(1.0, 1.0)">
    <rect width="48" height="48" rx="8" fill="#3B48CC" opacity="0.2"/>
    <rect x="4" y="4" width="40" height="40" rx="6" fill="#3B48CC"/>
    <text x="24" y="28" font-family="Arial" font-size="10" fill="white" text-anchor="middle">DYN</text>

    </g>
  </g>
  <text x="290" y="450" font-family="Arial, sans-serif" font-size="11" font-weight="normal" fill="#232f3e" text-anchor="middle">counter</text>
  <rect x="220" y="500" width="140" height="90" fill="#ffffff" stroke="#d4d4d4" stroke-width="1" rx="8" />
  <g transform="translate(266, 508)">
    <g transform="scale(1.0, 1.0)">
    <rect width="48" height="48" rx="8" fill="#DD344C" opacity="0.2"/>
    <rect x="4" y="4" width="40" height="40" rx="6" fill="#DD344C"/>
    <text x="24" y="28" font-family="Arial" font-size="10" fill="white" text-anchor="middle">IAM</text>

    </g>
  </g>
  <text x="290" y="580" font-family="Arial, sans-serif" font-size="11" font-weight="normal" fill="#232f3e" text-anchor="middle">lambda_execution</text>
  <rect x="220" y="630" width="140" height="90" fill="#ffffff" stroke="#d4d4d4" stroke-width="1" rx="8" />
  <g transform="translate(266, 638)">
    <g transform="scale(1.0, 1.0)">
    <rect width="48" height="48" rx="8" fill="#ED7100" opacity="0.2"/>
    <rect x="4" y="4" width="40" height="40" rx="6" fill="#ED7100"/>
    <text x="24" y="28" font-family="Arial" font-size="10" fill="white" text-anchor="middle">CLO</text>

    </g>
  </g>
  <text x="290" y="710" font-family="Arial, sans-serif" font-size="11" font-weight="normal" fill="#232f3e" text-anchor="middle">lambda</text>
  <rect x="480" y="110" width="140" height="90" fill="#ffffff" stroke="#d4d4d4" stroke-width="1" rx="8" />
  <g transform="translate(526, 118)">
    <g transform="scale(1.0, 1.0)">
    <rect width="48" height="48" rx="8" fill="#8C4FFF" opacity="0.2"/>
    <rect x="4" y="4" width="40" height="40" rx="6" fill="#8C4FFF"/>
    <text x="24" y="28" font-family="Arial" font-size="10" fill="white" text-anchor="middle">ROU</text>

    </g>
  </g>
  <text x="550" y="190" font-family="Arial, sans-serif" font-size="11" font-weight="normal" fill="#232f3e" text-anchor="middle">main</text>
  <rect x="480" y="240" width="140" height="90" fill="#ffffff" stroke="#d4d4d4" stroke-width="1" rx="8" />
  <g transform="translate(526, 248)">
    <g transform="scale(1.0, 1.0)">
    <rect width="48" height="48" rx="8" fill="#8C4FFF" opacity="0.2"/>
    <rect x="4" y="4" width="40" height="40" rx="6" fill="#8C4FFF"/>
    <text x="24" y="28" font-family="Arial" font-size="10" fill="white" text-anchor="middle">CLO</text>

    </g>
  </g>
  <text x="550" y="320" font-family="Arial, sans-serif" font-size="11" font-weight="normal" fill="#232f3e" text-anchor="middle">website</text>
  <rect x="480" y="370" width="140" height="90" fill="#ffffff" stroke="#d4d4d4" stroke-width="1" rx="8" />
  <g transform="translate(526, 378)">
    <g transform="scale(1.0, 1.0)">
    <rect width="48" height="48" rx="8" fill="#3F8624" opacity="0.2"/>
    <rect x="4" y="4" width="40" height="40" rx="6" fill="#3F8624"/>
    <text x="24" y="28" font-family="Arial" font-size="10" fill="white" text-anchor="middle">S3</text>

    </g>
  </g>
  <text x="550" y="450" font-family="Arial, sans-serif" font-size="11" font-weight="normal" fill="#232f3e" text-anchor="middle">website</text>
  <rect x="480" y="500" width="140" height="90" fill="#ffffff" stroke="#d4d4d4" stroke-width="1" rx="8" />
  <g transform="translate(526, 508)">
    <g transform="scale(1.0, 1.0)">
    <rect width="48" height="48" rx="8" fill="#DD344C" opacity="0.2"/>
    <rect x="4" y="4" width="40" height="40" rx="6" fill="#DD344C"/>
    <text x="24" y="28" font-family="Arial" font-size="10" fill="white" text-anchor="middle">WAF</text>

    </g>
  </g>
  <text x="550" y="580" font-family="Arial, sans-serif" font-size="11" font-weight="normal" fill="#232f3e" text-anchor="middle">cloudfront_prote...</text>
  <rect x="480" y="630" width="140" height="90" fill="#ffffff" stroke="#d4d4d4" stroke-width="1" rx="8" />
  <g transform="translate(526, 638)">
    <g transform="scale(1.0, 1.0)">
    <rect width="48" height="48" rx="8" fill="#DD344C" opacity="0.2"/>
    <rect x="4" y="4" width="40" height="40" rx="6" fill="#DD344C"/>
    <text x="24" y="28" font-family="Arial" font-size="10" fill="white" text-anchor="middle">ACM</text>

    </g>
  </g>
  <text x="550" y="710" font-family="Arial, sans-serif" font-size="11" font-weight="normal" fill="#232f3e" text-anchor="middle">website</text>
  <path d="M 360 285 L 290 285 L 290 415 L 220 415" fill="none" stroke="#666666" stroke-width="1.5" marker-end="url(#arrowhead)" />
  <path d="M 620 285 L 550 285 L 550 415 L 480 415" fill="none" stroke="#666666" stroke-width="1.5" marker-end="url(#arrowhead)" />
  <g transform="translate(50, 110)">
    <circle cx="24" cy="16" r="10" fill="none" stroke="#232f3e" stroke-width="2"/>
    <path d="M 6 44 Q 6 28 24 28 Q 42 28 42 44" fill="none" stroke="#232f3e" stroke-width="2"/>
  </g>
  <text x="74" y="173" font-family="Arial, sans-serif" font-size="11" font-weight="normal" fill="#232f3e" text-anchor="middle">Users</text>
  <line x1="98" y1="134" x2="190" y2="134" stroke="#666666" stroke-width="1.5" />
  <line x1="190" y1="155" x2="190" y2="285" stroke="#666666" stroke-width="1.5" />
  <line x1="190" y1="155" x2="220" y2="155" stroke="#666666" stroke-width="1.5" marker-end="url(#arrowhead)" />
  <line x1="190" y1="155" x2="480" y2="155" stroke="#666666" stroke-width="1.5" marker-end="url(#arrowhead)" />
  <line x1="190" y1="285" x2="480" y2="285" stroke="#666666" stroke-width="1.5" marker-end="url(#arrowhead)" />
</svg>